# Blender 4.2.19 LTS
# www.blender.org
mtllib RTC_NikolaevVA_base.mtl
o base
v 0.000000 0.000000 -1.000000
v -0.195090 0.000000 -0.980785
v -0.476123 0.000000 -1.112580
v -0.684322 0.000000 -1.001296
v -0.866809 0.000000 -0.851532
v -0.831470 0.000000 -0.555570
v -0.923879 0.000000 -0.382683
v -0.980785 0.000000 -0.195090
v -1.000000 0.000000 -0.000000
v -0.980785 0.000000 0.195090
v -0.923879 0.000000 0.382683
v -0.831470 0.000000 0.555570
v -0.866809 0.000000 0.851532
v -0.684322 0.000000 1.001296
v -0.476123 0.000000 1.112580
v -0.195090 0.000000 0.980785
v 0.000000 0.000000 1.000000
v 0.195090 0.000000 0.980785
v 0.382683 0.000000 0.923880
v 0.653767 0.000000 1.001296
v 0.836255 0.000000 0.851532
v 0.986018 0.000000 0.669044
v 0.923880 0.000000 0.382683
v 0.980785 0.000000 0.195090
v 1.000000 0.000000 -0.000000
v 0.980785 0.000000 -0.195090
v 0.923880 0.000000 -0.382683
v 0.986018 0.000000 -0.669044
v 0.836255 0.000000 -0.851532
v 0.653767 0.000000 -1.001296
v 0.382683 0.000000 -0.923879
v 0.195090 0.000000 -0.980785
v 0.000000 0.294347 -0.931720
v -0.181770 0.294347 -0.913817
v -0.480462 0.039722 -1.111029
v -0.688370 0.039722 -0.999900
v -0.870604 0.039722 -0.850345
v -0.774697 0.294347 -0.517636
v -0.860797 0.294347 -0.356554
v -0.913817 0.294347 -0.181770
v -0.931720 0.294347 0.000000
v -0.913817 0.294347 0.181770
v -0.860797 0.294347 0.356554
v -0.774697 0.294347 0.517636
v -0.870604 0.039722 0.850345
v -0.688370 0.039722 0.999900
v -0.480462 0.039722 1.111029
v -0.181770 0.294347 0.913817
v 0.000000 0.294347 0.931720
v 0.181770 0.294347 0.913817
v 0.356554 0.294347 0.860797
v 0.647853 0.039722 0.999900
v 0.830086 0.039722 0.850345
v 0.979641 0.039722 0.668112
v 0.860797 0.294347 0.356554
v 0.913817 0.294347 0.181770
v 0.931720 0.294347 0.000000
v 0.913817 0.294347 -0.181770
v 0.860797 0.294347 -0.356554
v 0.979641 0.039722 -0.668112
v 0.830086 0.039722 -0.850345
v 0.647853 0.039722 -0.999900
v 0.356554 0.294347 -0.860797
v 0.181770 0.294347 -0.913817
v 0.000000 0.324798 -0.714255
v -0.139344 0.324798 -0.700531
v -0.277556 0.324798 -0.668413
v -0.402637 0.324798 -0.601556
v -0.512272 0.324798 -0.511581
v -0.593881 0.324798 -0.396819
v -0.659885 0.324798 -0.273333
v -0.700531 0.324798 -0.139344
v -0.714255 0.324798 0.000000
v -0.700531 0.324798 0.139344
v -0.659885 0.324798 0.273333
v -0.593881 0.324798 0.396819
v -0.512272 0.324798 0.511581
v -0.402637 0.324798 0.601556
v -0.277556 0.324798 0.668413
v -0.139344 0.324798 0.700531
v 0.000000 0.324798 0.714255
v 0.139344 0.324798 0.700531
v 0.273333 0.324798 0.659885
v 0.401256 0.324798 0.601556
v 0.510891 0.324798 0.511581
v 0.600866 0.324798 0.401947
v 0.659885 0.324798 0.273333
v 0.700531 0.324798 0.139344
v 0.714255 0.324798 0.000000
v 0.700531 0.324798 -0.139344
v 0.659885 0.324798 -0.273333
v 0.600866 0.324798 -0.401947
v 0.510891 0.324798 -0.511581
v 0.401256 0.324798 -0.601556
v 0.273333 0.324798 -0.659885
v 0.139344 0.324798 -0.700531
v 0.000000 0.546349 -0.714255
v -0.139344 0.546349 -0.700531
v -0.277556 0.546349 -0.668413
v -0.402637 0.546349 -0.601556
v -0.512272 0.546349 -0.511581
v -0.593881 0.546349 -0.396819
v -0.659885 0.546349 -0.273333
v -0.700531 0.546349 -0.139344
v -0.714255 0.546349 0.000000
v -0.700531 0.546349 0.139344
v -0.659885 0.546349 0.273333
v -0.593881 0.546349 0.396819
v -0.512272 0.546349 0.511581
v -0.402637 0.546349 0.601556
v -0.277556 0.546349 0.668413
v -0.139344 0.546349 0.700531
v 0.000000 0.546349 0.714255
v 0.139344 0.546349 0.700531
v 0.273333 0.546349 0.659885
v 0.401256 0.546349 0.601556
v 0.510891 0.546349 0.511581
v 0.600866 0.546349 0.401947
v 0.659885 0.546349 0.273333
v 0.700531 0.546349 0.139344
v 0.714255 0.546349 0.000000
v 0.700531 0.546349 -0.139344
v 0.659885 0.546349 -0.273333
v 0.600866 0.546349 -0.401947
v 0.510891 0.546349 -0.511581
v 0.401256 0.546349 -0.601556
v 0.273333 0.546349 -0.659885
v 0.139344 0.546349 -0.700531
v 0.000000 0.546349 -0.817826
v -0.159550 0.546349 -0.802111
v -0.317803 0.546349 -0.765337
v -0.461022 0.546349 -0.688785
v -0.586554 0.546349 -0.585763
v -0.679997 0.546349 -0.454360
v -0.755572 0.546349 -0.312968
v -0.802111 0.546349 -0.159550
v -0.817826 0.546349 0.000000
v -0.802111 0.546349 0.159550
v -0.755572 0.546349 0.312968
v -0.679997 0.546349 0.454360
v -0.586554 0.546349 0.585763
v -0.461022 0.546349 0.688785
v -0.317803 0.546349 0.765337
v -0.159550 0.546349 0.802111
v 0.000000 0.546349 0.817826
v 0.159550 0.546349 0.802111
v 0.312968 0.546349 0.755572
v 0.459441 0.546349 0.688785
v 0.584973 0.546349 0.585763
v 0.687994 0.546349 0.460231
v 0.755572 0.546349 0.312968
v 0.802111 0.546349 0.159550
v 0.817826 0.546349 0.000000
v 0.802111 0.546349 -0.159550
v 0.755572 0.546349 -0.312968
v 0.687994 0.546349 -0.460231
v 0.584973 0.546349 -0.585763
v 0.459441 0.546349 -0.688785
v 0.312968 0.546349 -0.755572
v 0.159550 0.546349 -0.802111
v -1.439189 0.034182 0.666597
v -1.439189 0.568578 0.666598
v -1.439189 0.034182 -0.666597
v -1.439189 0.568578 -0.666597
v -0.887579 0.034182 0.666597
v -0.887579 0.568578 0.666598
v -0.887579 0.034182 -0.666597
v -0.887579 0.568578 -0.666597
v -1.023645 0.034182 -0.666597
v -1.023645 0.568578 -0.666597
v -1.023645 0.034182 0.666597
v -1.023645 0.568578 0.666598
v -1.023645 0.623185 -0.666597
v -0.887579 0.623185 -0.666597
v -0.887579 0.623186 0.666598
v -1.023645 0.623186 0.666598
v -0.887579 0.004191 0.666597
v -0.887579 0.004191 -0.666597
v -1.023645 0.004191 0.666597
v -1.023645 0.004191 -0.666597
vn -0.9776 -0.2092 0.0242
vn -0.9554 -0.2260 0.1900
vn -0.9683 -0.2170 0.1240
vn 0.5500 0.0267 -0.8348
vn 0.6339 0.0375 -0.7725
vn 0.5607 0.0281 -0.8275
vn -0.9599 -0.1823 -0.2129
vn 0.4713 0.0171 -0.8818
vn 0.0955 -0.2249 0.9697
vn -0.0000 -0.2260 0.9741
vn -0.7049 -0.1303 0.6973
vn -0.7656 -0.1377 0.6284
vn -0.6973 -0.1294 0.7050
vn -0.4287 -0.1705 -0.8872
vn -0.4287 -0.1705 0.8872
vn -0.6298 -0.1207 0.7674
vn -0.0000 -0.2260 -0.9741
vn 0.0955 -0.2249 -0.9697
vn 0.5500 0.0267 0.8348
vn 0.4713 0.0171 0.8818
vn 0.5607 0.0281 0.8275
vn 0.2935 -0.1539 0.9435
vn -0.1900 -0.2260 -0.9554
vn 0.6339 0.0375 0.7725
vn -0.1900 -0.2260 0.9554
vn -0.2828 -0.2249 0.9324
vn -0.2828 -0.2249 -0.9324
vn 0.9792 -0.1379 -0.1486
vn 0.2935 -0.1539 -0.9435
vn 0.9000 -0.2260 0.3728
vn 0.8593 -0.2249 0.4593
vn -0.7049 -0.1303 -0.6973
vn -0.6298 -0.1207 -0.7674
vn -0.6973 -0.1294 -0.7050
vn 0.9554 -0.2260 0.1900
vn -0.7656 -0.1377 -0.6284
vn 0.9741 -0.2260 -0.0000
vn -0.9776 -0.2092 -0.0242
vn -0.9599 -0.1823 0.2129
vn -0.9683 -0.2170 -0.1240
vn 0.9554 -0.2260 -0.1900
vn -0.9554 -0.2260 -0.1900
vn 0.9000 -0.2260 -0.3728
vn -0.9741 -0.2260 -0.0000
vn 0.8593 -0.2249 -0.4593
vn 0.9792 -0.1379 0.1486
vn 0.2803 -0.8699 0.4059
vn 0.2586 -0.9402 0.2218
vn 0.2117 -0.9552 0.2066
vn 0.3287 -0.8746 0.3563
vn -0.3722 -0.8588 0.3520
vn -0.3689 -0.8527 0.3700
vn -0.3701 -0.8527 0.3688
vn -0.4116 -0.8616 0.2971
vn -0.0000 -0.9903 -0.1387
vn 0.2586 -0.9402 -0.2218
vn 0.2117 -0.9552 -0.2066
vn 0.2801 -0.8644 0.4177
vn 0.2786 -0.8643 0.4187
vn -0.3191 -0.9326 0.1686
vn -0.2654 -0.9503 0.1626
vn -0.0271 -0.9903 -0.1360
vn 0.2661 -0.8697 0.4157
vn 0.2056 -0.8724 0.4435
vn -0.0271 -0.9903 0.1360
vn -0.3191 -0.9326 -0.1686
vn -0.2654 -0.9503 -0.1626
vn 0.1048 -0.9367 0.3340
vn 0.1091 -0.9536 0.2806
vn -0.0000 -0.9903 0.1387
vn -0.3722 -0.8588 -0.3520
vn -0.4116 -0.8616 -0.2971
vn 0.1281 -0.9903 0.0531
vn -0.3689 -0.8527 -0.3700
vn -0.3701 -0.8527 -0.3688
vn 0.1360 -0.9903 0.0271
vn -0.3533 -0.8591 -0.3704
vn -0.2944 -0.8638 -0.4088
vn 0.1387 -0.9903 -0.0000
vn -0.1679 -0.9359 -0.3096
vn -0.1622 -0.9519 -0.2597
vn 0.1360 -0.9903 -0.0271
vn -0.1360 -0.9903 -0.0271
vn 0.1281 -0.9903 -0.0531
vn -0.1387 -0.9903 -0.0000
vn 0.1048 -0.9367 -0.3340
vn 0.1091 -0.9536 -0.2806
vn -0.1360 -0.9903 0.0271
vn 0.2661 -0.8697 -0.4157
vn 0.2056 -0.8724 -0.4435
vn -0.1679 -0.9359 0.3096
vn -0.1622 -0.9519 0.2597
vn 0.2801 -0.8644 -0.4177
vn 0.2786 -0.8643 -0.4187
vn -0.3533 -0.8591 0.3704
vn -0.2944 -0.8638 0.4088
vn 0.2803 -0.8699 -0.4059
vn 0.3287 -0.8746 -0.3563
vn 0.1625 -0.0000 0.9867
vn -0.0000 -0.0000 1.0000
vn -0.7071 -0.0000 0.7071
vn -0.8479 -0.0000 0.5301
vn 0.1625 -0.0000 -0.9867
vn 0.3519 -0.0000 -0.9360
vn 0.3519 -0.0000 0.9360
vn -0.5291 -0.0000 0.8486
vn -0.0000 -0.0000 -1.0000
vn 0.5556 -0.0000 0.8315
vn -0.3534 -0.0000 0.9355
vn -0.1951 -0.0000 -0.9808
vn 0.7311 -0.0000 0.6823
vn -0.1951 -0.0000 0.9808
vn -0.3534 -0.0000 -0.9355
vn 0.8502 -0.0000 0.5265
vn -0.5291 -0.0000 -0.8486
vn 0.9239 -0.0000 0.3827
vn -0.7071 -0.0000 -0.7071
vn 0.9808 -0.0000 0.1951
vn -0.8479 -0.0000 -0.5301
vn 1.0000 -0.0000 -0.0000
vn -0.9351 -0.0000 -0.3545
vn 0.9808 -0.0000 -0.1951
vn -0.9808 -0.0000 -0.1951
vn 0.9239 -0.0000 -0.3827
vn -1.0000 -0.0000 -0.0000
vn 0.8502 -0.0000 -0.5265
vn -0.9808 -0.0000 0.1951
vn 0.7311 -0.0000 -0.6823
vn -0.9351 -0.0000 0.3545
vn 0.5556 -0.0000 -0.8315
vn -0.0000 1.0000 -0.0000
vn -0.0000 -1.0000 -0.0000
vt 0.000000 0.000000
vt 0.375000 0.000000
vt 0.625000 0.000000
vt 0.625000 0.250000
vt 0.375000 0.250000
vt 0.375000 0.469343
vt 0.625000 0.469343
vt 0.625000 0.500000
vt 0.375000 0.500000
vt 0.625000 0.750000
vt 0.375000 0.750000
vt 0.375000 0.780657
vt 0.625000 0.780657
vt 0.625000 1.000000
vt 0.375000 1.000000
vt 0.655657 0.500000
vt 0.875000 0.500000
vt 0.875000 0.750000
vt 0.655657 0.750000
vt 0.125000 0.500000
vt 0.344343 0.500000
vt 0.344343 0.750000
vt 0.125000 0.750000
s 1
usemtl Material.004
f 27/1/1 26/1/2 58/1/2 59/1/3
f 14/1/4 13/1/5 45/1/5 46/1/6
f 28/1/7 27/1/1 59/1/3 60/1/7
f 15/1/8 14/1/4 46/1/6 47/1/8
f 2/1/9 1/1/10 33/1/10 34/1/9
f 29/1/11 28/1/12 60/1/12 61/1/13
f 16/1/14 15/1/14 47/1/14 48/1/14
f 3/1/15 2/1/15 34/1/15 35/1/15
f 30/1/16 29/1/11 61/1/13 62/1/16
f 17/1/17 16/1/18 48/1/18 49/1/17
f 4/1/19 3/1/20 35/1/20 36/1/21
f 31/1/22 30/1/22 62/1/22 63/1/22
f 18/1/23 17/1/17 49/1/17 50/1/23
f 5/1/24 4/1/19 36/1/21 37/1/24
f 32/1/25 31/1/26 63/1/26 64/1/25
f 19/1/27 18/1/23 50/1/23 51/1/27
f 6/1/28 5/1/28 37/1/28 38/1/28
f 1/1/10 32/1/25 64/1/25 33/1/10
f 20/1/29 19/1/29 51/1/29 52/1/29
f 7/1/30 6/1/31 38/1/31 39/1/30
f 21/1/32 20/1/33 52/1/33 53/1/34
f 8/1/35 7/1/30 39/1/30 40/1/35
f 22/1/36 21/1/32 53/1/34 54/1/36
f 9/1/37 8/1/35 40/1/35 41/1/37
f 23/1/38 22/1/39 54/1/39 55/1/40
f 10/1/41 9/1/37 41/1/37 42/1/41
f 24/1/42 23/1/38 55/1/40 56/1/42
f 11/1/43 10/1/41 42/1/41 43/1/43
f 25/1/44 24/1/42 56/1/42 57/1/44
f 12/1/45 11/1/43 43/1/43 44/1/45
f 26/1/2 25/1/44 57/1/44 58/1/2
f 13/1/46 12/1/46 44/1/46 45/1/46
f 35/1/47 34/1/48 66/1/49 67/1/50
f 62/1/51 61/1/52 93/1/53 94/1/54
f 49/1/55 48/1/56 80/1/57 81/1/55
f 36/1/58 35/1/47 67/1/50 68/1/59
f 63/1/60 62/1/51 94/1/54 95/1/61
f 50/1/62 49/1/55 81/1/55 82/1/62
f 37/1/63 36/1/58 68/1/59 69/1/64
f 64/1/65 63/1/60 95/1/61 96/1/65
f 51/1/66 50/1/62 82/1/62 83/1/67
f 38/1/68 37/1/63 69/1/64 70/1/69
f 33/1/70 64/1/65 96/1/65 65/1/70
f 52/1/71 51/1/66 83/1/67 84/1/72
f 39/1/73 38/1/68 70/1/69 71/1/73
f 53/1/74 52/1/71 84/1/72 85/1/75
f 40/1/76 39/1/73 71/1/73 72/1/76
f 54/1/77 53/1/74 85/1/75 86/1/78
f 41/1/79 40/1/76 72/1/76 73/1/79
f 55/1/80 54/1/77 86/1/78 87/1/81
f 42/1/82 41/1/79 73/1/79 74/1/82
f 56/1/83 55/1/80 87/1/81 88/1/83
f 43/1/84 42/1/82 74/1/82 75/1/84
f 57/1/85 56/1/83 88/1/83 89/1/85
f 44/1/86 43/1/84 75/1/84 76/1/87
f 58/1/88 57/1/85 89/1/85 90/1/88
f 45/1/89 44/1/86 76/1/87 77/1/90
f 59/1/91 58/1/88 90/1/88 91/1/92
f 46/1/93 45/1/89 77/1/90 78/1/94
f 60/1/95 59/1/91 91/1/92 92/1/96
f 47/1/97 46/1/93 78/1/94 79/1/98
f 34/1/48 33/1/70 65/1/70 66/1/49
f 61/1/52 60/1/95 92/1/96 93/1/53
f 48/1/56 47/1/97 79/1/98 80/1/57
f 66/1/99 65/1/100 97/1/100 98/1/99
f 93/1/101 92/1/102 124/1/102 125/1/101
f 80/1/103 79/1/104 111/1/104 112/1/103
f 67/1/105 66/1/99 98/1/99 99/1/105
f 94/1/106 93/1/101 125/1/101 126/1/106
f 81/1/107 80/1/103 112/1/103 113/1/107
f 68/1/108 67/1/105 99/1/105 100/1/108
f 95/1/109 94/1/106 126/1/106 127/1/109
f 82/1/110 81/1/107 113/1/107 114/1/110
f 69/1/111 68/1/108 100/1/108 101/1/111
f 96/1/112 95/1/109 127/1/109 128/1/112
f 83/1/113 82/1/110 114/1/110 115/1/113
f 70/1/114 69/1/111 101/1/111 102/1/114
f 65/1/100 96/1/112 128/1/112 97/1/100
f 84/1/115 83/1/113 115/1/113 116/1/115
f 71/1/116 70/1/114 102/1/114 103/1/116
f 85/1/117 84/1/115 116/1/115 117/1/117
f 72/1/118 71/1/116 103/1/116 104/1/118
f 86/1/119 85/1/117 117/1/117 118/1/119
f 73/1/120 72/1/118 104/1/118 105/1/120
f 87/1/121 86/1/119 118/1/119 119/1/121
f 74/1/122 73/1/120 105/1/120 106/1/122
f 88/1/123 87/1/121 119/1/121 120/1/123
f 75/1/124 74/1/122 106/1/122 107/1/124
f 89/1/125 88/1/123 120/1/123 121/1/125
f 76/1/126 75/1/124 107/1/124 108/1/126
f 90/1/127 89/1/125 121/1/125 122/1/127
f 77/1/128 76/1/126 108/1/126 109/1/128
f 91/1/129 90/1/127 122/1/127 123/1/129
f 78/1/130 77/1/128 109/1/128 110/1/130
f 92/1/102 91/1/129 123/1/129 124/1/102
f 79/1/104 78/1/130 110/1/130 111/1/104
f 99/1/131 98/1/131 130/1/131 131/1/131
f 126/1/131 125/1/131 157/1/131 158/1/131
f 113/1/131 112/1/131 144/1/131 145/1/131
f 100/1/131 99/1/131 131/1/131 132/1/131
f 127/1/131 126/1/131 158/1/131 159/1/131
f 114/1/131 113/1/131 145/1/131 146/1/131
f 101/1/131 100/1/131 132/1/131 133/1/131
f 128/1/131 127/1/131 159/1/131 160/1/131
f 115/1/131 114/1/131 146/1/131 147/1/131
f 102/1/131 101/1/131 133/1/131 134/1/131
f 97/1/131 128/1/131 160/1/131 129/1/131
f 116/1/131 115/1/131 147/1/131 148/1/131
f 103/1/131 102/1/131 134/1/131 135/1/131
f 117/1/131 116/1/131 148/1/131 149/1/131
f 104/1/131 103/1/131 135/1/131 136/1/131
f 118/1/131 117/1/131 149/1/131 150/1/131
f 105/1/131 104/1/131 136/1/131 137/1/131
f 119/1/131 118/1/131 150/1/131 151/1/131
f 106/1/131 105/1/131 137/1/131 138/1/131
f 120/1/131 119/1/131 151/1/131 152/1/131
f 107/1/131 106/1/131 138/1/131 139/1/131
f 121/1/131 120/1/131 152/1/131 153/1/131
f 108/1/131 107/1/131 139/1/131 140/1/131
f 122/1/131 121/1/131 153/1/131 154/1/131
f 109/1/131 108/1/131 140/1/131 141/1/131
f 123/1/131 122/1/131 154/1/131 155/1/131
f 110/1/131 109/1/131 141/1/131 142/1/131
f 124/1/131 123/1/131 155/1/131 156/1/131
f 111/1/131 110/1/131 142/1/131 143/1/131
f 98/1/131 97/1/131 129/1/131 130/1/131
f 125/1/131 124/1/131 156/1/131 157/1/131
f 112/1/131 111/1/131 143/1/131 144/1/131
f 161/2/125 162/3/125 164/4/125 163/5/125
f 169/6/107 170/7/107 168/8/107 167/9/107
f 167/9/120 168/8/120 166/10/120 165/11/120
f 171/12/100 172/13/100 162/14/100 161/15/100
f 169/6/107 167/9/107 178/9/107 180/6/107
f 170/16/131 164/17/131 162/18/131 172/19/131
f 168/8/107 170/7/107 173/7/107 174/8/107
f 163/20/132 169/21/132 171/22/132 161/23/132
f 165/11/100 166/10/100 172/13/100 171/12/100
f 163/5/107 164/4/107 170/7/107 169/6/107
f 174/8/131 173/16/131 176/19/131 175/10/131
f 170/16/125 172/19/125 176/19/125 173/16/125
f 166/10/120 168/8/120 174/8/120 175/10/120
f 172/13/100 166/10/100 175/10/100 176/13/100
f 180/21/132 178/9/132 177/11/132 179/22/132
f 165/11/100 171/12/100 179/12/100 177/11/100
f 171/22/125 169/21/125 180/21/125 179/22/125
f 167/9/120 165/11/120 177/11/120 178/9/120
f 98/1/131 99/1/131 100/1/131 101/1/131 102/1/131 103/1/131 104/1/131 105/1/131 106/1/131 107/1/131 108/1/131 109/1/131 110/1/131 111/1/131 112/1/131 113/1/131 114/1/131 115/1/131 116/1/131 117/1/131 118/1/131 119/1/131 120/1/131 121/1/131 122/1/131 123/1/131 124/1/131 125/1/131 126/1/131 127/1/131 128/1/131 97/1/131
