# Blender 4.2.19 LTS
# www.blender.org
mtllib RTC_NikolaevVA_top.mtl
o top
v -1.639745 3.322148 -0.514694
v 1.091734 3.322148 -0.269591
v -1.639745 3.250625 -0.507650
v 1.091734 3.298442 -0.267256
v -1.639745 3.181849 -0.486787
v 1.091734 3.275646 -0.260341
v -1.639745 3.118466 -0.452908
v 1.091734 3.254638 -0.249112
v -1.639745 3.062910 -0.407314
v 1.091734 3.236224 -0.234000
v -1.639745 3.017316 -0.351758
v 1.091734 3.221112 -0.215586
v -1.639745 2.983437 -0.288374
v 1.091734 3.209882 -0.194577
v -1.639745 2.962574 -0.219599
v 1.091734 3.202968 -0.171782
v -1.639745 2.955530 -0.148075
v 1.091734 3.200633 -0.148075
v -1.639745 2.962574 -0.076552
v 1.091734 3.202968 -0.124369
v -1.639745 2.983437 -0.007776
v 1.091734 3.209882 -0.101573
v -1.639745 3.017316 0.055607
v 1.091734 3.221112 -0.080565
v -1.639745 3.062910 0.111163
v 1.091734 3.236224 -0.062151
v -1.639745 3.118466 0.156757
v 1.091734 3.254638 -0.047039
v -1.639745 3.181849 0.190636
v 1.091734 3.275646 -0.035810
v -1.639745 3.250625 0.211499
v 1.091734 3.298442 -0.028895
v -1.639745 3.322148 0.218543
v 1.091734 3.322148 -0.026560
v -1.639745 3.393672 0.211499
v 1.091734 3.345855 -0.028895
v -1.639745 3.462447 0.190636
v 1.091734 3.368650 -0.035810
v -1.639745 3.525831 0.156757
v 1.091734 3.389658 -0.047039
v -1.639745 3.581387 0.111163
v 1.091734 3.408072 -0.062151
v -1.639745 3.626981 0.055607
v 1.091734 3.423184 -0.080565
v -1.639745 3.660860 -0.007776
v 1.091734 3.434414 -0.101573
v -1.639745 3.681723 -0.076552
v 1.091734 3.441329 -0.124369
v -1.639745 3.688767 -0.148075
v 1.091734 3.443664 -0.148075
v -1.639745 3.681723 -0.219599
v 1.091734 3.441329 -0.171782
v -1.639745 3.660860 -0.288374
v 1.091734 3.434414 -0.194577
v -1.639745 3.626981 -0.351758
v 1.091734 3.423184 -0.215586
v -1.639745 3.581387 -0.407314
v 1.091734 3.408072 -0.234000
v -1.639745 3.525831 -0.452908
v 1.091734 3.389658 -0.249112
v -1.639745 3.462447 -0.486787
v 1.091734 3.368650 -0.260341
v -1.639745 3.393672 -0.507650
v 1.091734 3.345855 -0.267256
v -1.554740 3.322148 -0.514694
v -1.554740 3.250625 -0.507650
v -1.554740 3.181849 -0.486787
v -1.554740 3.118466 -0.452908
v -1.554740 3.062910 -0.407314
v -1.554740 3.017316 -0.351758
v -1.554740 2.983437 -0.288374
v -1.554740 2.962574 -0.219599
v -1.554740 2.955530 -0.148075
v -1.554740 2.962574 -0.076552
v -1.554740 2.983437 -0.007776
v -1.554740 3.017316 0.055607
v -1.554740 3.062910 0.111163
v -1.554740 3.118466 0.156757
v -1.554740 3.181849 0.190636
v -1.554740 3.250625 0.211499
v -1.554740 3.322148 0.218543
v -1.554740 3.393672 0.211499
v -1.554740 3.462447 0.190636
v -1.554740 3.525831 0.156757
v -1.554740 3.581387 0.111163
v -1.554740 3.626981 0.055607
v -1.554740 3.660860 -0.007776
v -1.554740 3.681723 -0.076552
v -1.554740 3.688767 -0.148075
v -1.554740 3.681723 -0.219599
v -1.554740 3.660860 -0.288374
v -1.554740 3.626981 -0.351758
v -1.554740 3.581387 -0.407314
v -1.554740 3.525831 -0.452908
v -1.554740 3.462447 -0.486787
v -1.554740 3.393672 -0.507650
v -1.213832 3.322148 -0.483960
v -1.213832 3.256621 -0.477506
v -1.213832 3.193611 -0.458392
v -1.213832 3.135541 -0.427353
v -1.213832 3.084642 -0.385581
v -1.213832 3.042871 -0.334683
v -1.213832 3.011832 -0.276613
v -1.213832 2.992718 -0.213603
v -1.213832 2.986264 -0.148075
v -1.213832 2.992718 -0.082548
v -1.213832 3.011832 -0.019538
v -1.213832 3.042871 0.038532
v -1.213832 3.084642 0.089431
v -1.213832 3.135541 0.131202
v -1.213832 3.193611 0.162241
v -1.213832 3.256621 0.181355
v -1.213832 3.322148 0.187809
v -1.213832 3.387676 0.181355
v -1.213832 3.450686 0.162241
v -1.213832 3.508756 0.131202
v -1.213832 3.559654 0.089431
v -1.213832 3.601426 0.038532
v -1.213832 3.632465 -0.019538
v -1.213832 3.651579 -0.082548
v -1.213832 3.658033 -0.148075
v -1.213832 3.651579 -0.213603
v -1.213832 3.632465 -0.276613
v -1.213832 3.601426 -0.334683
v -1.213832 3.559654 -0.385581
v -1.213832 3.508756 -0.427353
v -1.213832 3.450686 -0.458392
v -1.213832 3.387676 -0.477506
v -0.532135 3.322148 -0.414681
v -0.532135 3.270136 -0.409558
v -0.532135 3.220123 -0.394387
v -0.532135 3.174030 -0.369750
v -0.532135 3.133630 -0.336594
v -0.532135 3.100474 -0.296193
v -0.532135 3.075837 -0.250101
v -0.532135 3.060666 -0.200087
v -0.532135 3.055543 -0.148075
v -0.532135 3.060666 -0.096063
v -0.532135 3.075837 -0.046050
v -0.532135 3.100474 0.000043
v -0.532135 3.133630 0.040443
v -0.532135 3.174030 0.073599
v -0.532135 3.220123 0.098236
v -0.532135 3.270136 0.113407
v -0.532135 3.322148 0.118530
v -0.532135 3.374161 0.113407
v -0.532135 3.424174 0.098236
v -0.532135 3.470266 0.073599
v -0.532135 3.510667 0.040443
v -0.532135 3.543823 0.000043
v -0.532135 3.568460 -0.046050
v -0.532135 3.583631 -0.096063
v -0.532135 3.588754 -0.148075
v -0.532135 3.583631 -0.200087
v -0.532135 3.568460 -0.250101
v -0.532135 3.543823 -0.296193
v -0.532135 3.510667 -0.336594
v -0.532135 3.470266 -0.369750
v -0.532135 3.424174 -0.394387
v -0.532135 3.374161 -0.409558
v -0.340860 3.322148 -0.414681
v -0.340860 3.270136 -0.409558
v -0.340860 3.220123 -0.394387
v -0.340860 3.174030 -0.369750
v -0.340860 3.133630 -0.336594
v -0.340860 3.100474 -0.296193
v -0.340860 3.075837 -0.250101
v -0.340860 3.060666 -0.200087
v -0.340860 3.055543 -0.148075
v -0.340860 3.060666 -0.096063
v -0.340860 3.075837 -0.046050
v -0.340860 3.100474 0.000043
v -0.340860 3.133630 0.040443
v -0.340860 3.174030 0.073599
v -0.340860 3.220123 0.098236
v -0.340860 3.270136 0.113407
v -0.340860 3.322148 0.118530
v -0.340860 3.374161 0.113407
v -0.340860 3.424174 0.098236
v -0.340860 3.470266 0.073599
v -0.340860 3.510667 0.040443
v -0.340860 3.543823 0.000043
v -0.340860 3.568460 -0.046050
v -0.340860 3.583631 -0.096063
v -0.340860 3.588754 -0.148075
v -0.340860 3.583631 -0.200087
v -0.340860 3.568460 -0.250101
v -0.340860 3.543823 -0.296193
v -0.340860 3.510667 -0.336594
v -0.340860 3.470266 -0.369750
v -0.340860 3.424174 -0.394387
v -0.340860 3.374161 -0.409558
v 0.888474 3.322148 -0.269591
v 0.888474 3.298442 -0.267256
v 0.888474 3.275646 -0.260341
v 0.888474 3.254638 -0.249112
v 0.888474 3.236224 -0.234000
v 0.888474 3.221112 -0.215586
v 0.888474 3.209882 -0.194577
v 0.888474 3.202968 -0.171782
v 0.888474 3.200633 -0.148075
v 0.888474 3.202968 -0.124369
v 0.888474 3.209882 -0.101573
v 0.888474 3.221112 -0.080565
v 0.888474 3.236224 -0.062151
v 0.888474 3.254638 -0.047039
v 0.888474 3.275646 -0.035810
v 0.888474 3.298442 -0.028895
v 0.888474 3.322148 -0.026560
v 0.888474 3.345855 -0.028895
v 0.888474 3.368650 -0.035810
v 0.888474 3.389658 -0.047039
v 0.888474 3.408072 -0.062151
v 0.888474 3.423184 -0.080565
v 0.888474 3.434414 -0.101573
v 0.888474 3.441329 -0.124369
v 0.888474 3.443664 -0.148075
v 0.888474 3.441329 -0.171782
v 0.888474 3.434414 -0.194577
v 0.888474 3.423184 -0.215586
v 0.888474 3.408072 -0.234000
v 0.888474 3.389658 -0.249112
v 0.888474 3.368650 -0.260341
v 0.888474 3.345855 -0.267256
v 0.686007 3.278549 -0.367262
v 0.686007 3.236626 -0.354545
v 0.686007 3.197989 -0.333893
v 0.686007 3.164124 -0.306100
v 0.686007 3.136331 -0.272235
v 0.686007 3.115679 -0.233598
v 0.686007 3.102962 -0.191674
v 0.686007 3.098668 -0.148075
v 0.686007 3.102962 -0.104476
v 0.686007 3.115679 -0.062553
v 0.686007 3.136331 -0.023916
v 0.686007 3.164124 0.009949
v 0.686007 3.197989 0.037742
v 0.686007 3.236626 0.058394
v 0.686007 3.278549 0.071111
v 0.686007 3.322148 0.075405
v 0.686007 3.365747 0.071111
v 0.686007 3.407670 0.058394
v 0.686007 3.446307 0.037742
v 0.686007 3.480173 0.009949
v 0.686007 3.507966 -0.023916
v 0.686007 3.528617 -0.062553
v 0.686007 3.541335 -0.104476
v 0.686007 3.545629 -0.148075
v 0.686007 3.541335 -0.191674
v 0.686007 3.528617 -0.233598
v 0.686007 3.507966 -0.272235
v 0.686007 3.480173 -0.306100
v 0.686007 3.446307 -0.333893
v 0.686007 3.407670 -0.354545
v 0.686007 3.365747 -0.367262
v 0.686007 3.322148 -0.371556
v 1.168382 3.292853 -0.295353
v 1.168382 3.322148 -0.298238
v 1.168382 3.264683 -0.286808
v 1.168382 3.238722 -0.272931
v 1.168382 3.215967 -0.254256
v 1.168382 3.197292 -0.231501
v 1.168382 3.183416 -0.205540
v 1.168382 3.174871 -0.177371
v 1.168382 3.171985 -0.148075
v 1.168382 3.174871 -0.118780
v 1.168382 3.183416 -0.090610
v 1.168382 3.197292 -0.064649
v 1.168382 3.215967 -0.041894
v 1.168382 3.238722 -0.023220
v 1.168382 3.264683 -0.009343
v 1.168382 3.292853 -0.000798
v 1.168382 3.322148 0.002087
v 1.168382 3.351444 -0.000798
v 1.168382 3.379613 -0.009343
v 1.168382 3.405574 -0.023220
v 1.168382 3.428329 -0.041894
v 1.168382 3.447004 -0.064649
v 1.168382 3.460881 -0.090610
v 1.168382 3.469425 -0.118780
v 1.168382 3.472311 -0.148075
v 1.168382 3.469425 -0.177371
v 1.168382 3.460881 -0.205540
v 1.168382 3.447004 -0.231501
v 1.168382 3.428329 -0.254256
v 1.168382 3.405574 -0.272931
v 1.168382 3.379613 -0.286808
v 1.168382 3.351444 -0.295353
v 1.201059 3.292853 -0.295353
v 1.201059 3.322148 -0.298238
v 1.201059 3.264683 -0.286808
v 1.201059 3.238722 -0.272931
v 1.201059 3.215967 -0.254256
v 1.201059 3.197292 -0.231501
v 1.201059 3.183416 -0.205540
v 1.201059 3.174871 -0.177371
v 1.201059 3.171985 -0.148075
v 1.201059 3.174871 -0.118780
v 1.201059 3.183416 -0.090610
v 1.201059 3.197292 -0.064649
v 1.201059 3.215967 -0.041894
v 1.201059 3.238722 -0.023220
v 1.201059 3.264683 -0.009343
v 1.201059 3.292853 -0.000798
v 1.201059 3.322148 0.002087
v 1.201059 3.351444 -0.000798
v 1.201059 3.379613 -0.009343
v 1.201059 3.405574 -0.023220
v 1.201059 3.428329 -0.041894
v 1.201059 3.447004 -0.064649
v 1.201059 3.460881 -0.090610
v 1.201059 3.469425 -0.118780
v 1.201059 3.472311 -0.148075
v 1.201059 3.469425 -0.177371
v 1.201059 3.460881 -0.205540
v 1.201059 3.447004 -0.231501
v 1.201059 3.428329 -0.254256
v 1.201059 3.405574 -0.272931
v 1.201059 3.379613 -0.286808
v 1.201059 3.351444 -0.295353
v -1.004857 3.558506 0.346923
v -1.087661 3.550350 0.346896
v -1.167284 3.526197 0.346816
v -1.240664 3.486975 0.346686
v -1.304982 3.434190 0.346511
v -1.357767 3.369872 0.346298
v -1.396989 3.296492 0.346054
v -1.421143 3.216869 0.345790
v -1.429298 3.134065 0.345515
v -1.421143 3.051261 0.345241
v -1.396989 2.971639 0.344976
v -1.357767 2.898259 0.344733
v -1.304982 2.833940 0.344520
v -1.240664 2.781156 0.344345
v -1.167284 2.741933 0.344214
v -1.087661 2.717780 0.344134
v -1.004857 2.709625 0.344107
v -0.922053 2.717780 0.344134
v -0.842430 2.741933 0.344214
v -0.769050 2.781156 0.344345
v -0.704732 2.833940 0.344520
v -0.651947 2.898258 0.344733
v -0.612725 2.971639 0.344976
v -0.588571 3.051261 0.345241
v -0.580416 3.134065 0.345515
v -0.588571 3.216869 0.345790
v -0.612725 3.296492 0.346054
v -0.651947 3.369872 0.346298
v -0.704732 3.434190 0.346511
v -0.769050 3.486975 0.346686
v -0.842430 3.526197 0.346816
v -0.922053 3.550350 0.346896
v -1.004857 3.558506 0.217685
v -1.087661 3.550350 0.217658
v -1.167284 3.526197 0.217578
v -1.240664 3.486975 0.217447
v -1.304982 3.434190 0.217272
v -1.357767 3.369872 0.217059
v -1.396989 3.296492 0.216816
v -1.421143 3.216869 0.216551
v -1.429298 3.134065 0.216277
v -1.421143 3.051261 0.216002
v -1.396989 2.971639 0.215738
v -1.357767 2.898259 0.215494
v -1.304982 2.833940 0.215281
v -1.240664 2.781156 0.215106
v -1.167284 2.741933 0.214976
v -1.087661 2.717780 0.214896
v -1.004857 2.709625 0.214869
v -0.922053 2.717780 0.214896
v -0.842430 2.741933 0.214976
v -0.769050 2.781156 0.215106
v -0.704732 2.833940 0.215281
v -0.651947 2.898258 0.215494
v -0.612725 2.971639 0.215738
v -0.588571 3.051261 0.216002
v -0.580416 3.134065 0.216277
v -0.588571 3.216869 0.216551
v -0.612725 3.296492 0.216816
v -0.651947 3.369872 0.217059
v -0.704732 3.434190 0.217272
v -0.769050 3.486975 0.217447
v -0.842430 3.526197 0.217578
v -0.922053 3.550350 0.217658
v -1.004857 3.587520 0.171894
v -1.093322 3.578807 0.171867
v -1.178387 3.553003 0.171787
v -1.256783 3.511099 0.171657
v -1.325498 3.454706 0.171482
v -1.381891 3.385991 0.171269
v -1.423795 3.307595 0.171025
v -1.449599 3.222530 0.170761
v -1.458312 3.134065 0.170486
v -1.449599 3.045600 0.170212
v -1.423795 2.960536 0.169948
v -1.381891 2.882139 0.169704
v -1.325498 2.813424 0.169491
v -1.256783 2.757031 0.169316
v -1.178387 2.715128 0.169186
v -1.093322 2.689323 0.169105
v -1.004857 2.680610 0.169078
v -0.916392 2.689323 0.169105
v -0.831327 2.715128 0.169186
v -0.752931 2.757031 0.169316
v -0.684216 2.813424 0.169491
v -0.627823 2.882139 0.169704
v -0.585919 2.960536 0.169948
v -0.560115 3.045601 0.170212
v -0.551402 3.134065 0.170486
v -0.560115 3.222530 0.170761
v -0.585919 3.307595 0.171025
v -0.627823 3.385991 0.171269
v -0.684216 3.454706 0.171482
v -0.752931 3.511099 0.171657
v -0.831327 3.553003 0.171787
v -0.916392 3.578807 0.171867
v -1.004857 3.587520 0.068866
v -1.093322 3.578807 0.068839
v -1.178387 3.553003 0.068759
v -1.256783 3.511099 0.068629
v -1.325498 3.454706 0.068454
v -1.381891 3.385991 0.068240
v -1.423795 3.307595 0.067997
v -1.449599 3.222530 0.067733
v -1.458312 3.134065 0.067458
v -1.449599 3.045600 0.067183
v -1.423795 2.960536 0.066919
v -1.381891 2.882139 0.066676
v -1.325498 2.813424 0.066463
v -1.256783 2.757031 0.066287
v -1.178387 2.715128 0.066157
v -1.093322 2.689323 0.066077
v -1.004857 2.680610 0.066050
v -0.916392 2.689323 0.066077
v -0.831327 2.715128 0.066157
v -0.752931 2.757031 0.066287
v -0.684216 2.813424 0.066463
v -0.627823 2.882139 0.066676
v -0.585919 2.960536 0.066919
v -0.560115 3.045601 0.067183
v -0.551402 3.134065 0.067458
v -0.560115 3.222530 0.067733
v -0.585919 3.307595 0.067997
v -0.627823 3.385991 0.068240
v -0.684216 3.454706 0.068454
v -0.752931 3.511099 0.068629
v -0.831327 3.553003 0.068759
v -0.916392 3.578807 0.068839
v -1.004857 3.328459 0.068062
v -1.042781 3.324723 0.068050
v -1.079248 3.313661 0.068016
v -1.112856 3.295697 0.067960
v -1.142314 3.271522 0.067885
v -1.166489 3.242064 0.067794
v -1.184453 3.208456 0.067689
v -1.195516 3.171989 0.067576
v -1.199251 3.134065 0.067458
v -1.195516 3.096140 0.067340
v -1.184453 3.059674 0.067227
v -1.166489 3.026065 0.067123
v -1.142314 2.996608 0.067031
v -1.112856 2.972432 0.066956
v -1.079248 2.954468 0.066901
v -1.042781 2.943406 0.066866
v -1.004857 2.939671 0.066855
v -0.966933 2.943406 0.066866
v -0.930466 2.954468 0.066901
v -0.896857 2.972432 0.066956
v -0.867400 2.996608 0.067031
v -0.843224 3.026065 0.067123
v -0.825260 3.059674 0.067227
v -0.814198 3.096140 0.067340
v -0.810463 3.134065 0.067458
v -0.814198 3.171989 0.067576
v -0.825260 3.208456 0.067689
v -0.843224 3.242064 0.067794
v -0.867400 3.271522 0.067885
v -0.896857 3.295697 0.067960
v -0.930466 3.313661 0.068016
v -0.966933 3.324723 0.068050
v -1.004857 3.328459 -0.701040
v -1.042781 3.324723 -0.701051
v -1.079248 3.313661 -0.701086
v -1.112856 3.295697 -0.701142
v -1.142314 3.271522 -0.701217
v -1.166489 3.242064 -0.701308
v -1.184453 3.208456 -0.701412
v -1.195516 3.171989 -0.701526
v -1.199251 3.134065 -0.701643
v -1.195516 3.096140 -0.701761
v -1.184453 3.059674 -0.701874
v -1.166489 3.026065 -0.701979
v -1.142314 2.996608 -0.702070
v -1.112856 2.972432 -0.702145
v -1.079248 2.954468 -0.702201
v -1.042781 2.943406 -0.702235
v -1.004857 2.939671 -0.702247
v -0.966933 2.943406 -0.702235
v -0.930466 2.954468 -0.702201
v -0.896857 2.972432 -0.702145
v -0.867400 2.996608 -0.702070
v -0.843224 3.026065 -0.701979
v -0.825260 3.059674 -0.701874
v -0.814198 3.096140 -0.701761
v -0.810463 3.134065 -0.701643
v -0.814198 3.171989 -0.701526
v -0.825260 3.208456 -0.701412
v -0.843224 3.242064 -0.701308
v -0.867400 3.271522 -0.701217
v -0.896857 3.295697 -0.701142
v -0.930466 3.313661 -0.701086
v -0.966933 3.324723 -0.701051
vn 0.2345 -0.0000 -0.9721
vn -0.1799 -0.0000 -0.9837
vn -0.1799 -0.1919 -0.9648
vn 0.2345 -0.1897 -0.9534
vn -0.1799 -0.3764 -0.9088
vn 0.2345 -0.3720 -0.8981
vn -0.1799 -0.5465 -0.8179
vn 0.2345 -0.5401 -0.8083
vn -0.1799 -0.6956 -0.6956
vn 0.2345 -0.6874 -0.6874
vn -0.1799 -0.8179 -0.5465
vn 0.2345 -0.8083 -0.5401
vn -0.1799 -0.9088 -0.3764
vn 0.2345 -0.8981 -0.3720
vn -0.1799 -0.9648 -0.1919
vn 0.2345 -0.9534 -0.1897
vn -0.1799 -0.9837 -0.0000
vn 0.2345 -0.9721 -0.0000
vn -0.1799 -0.9648 0.1919
vn 0.2345 -0.9534 0.1897
vn -0.1799 -0.9088 0.3764
vn 0.2345 -0.8981 0.3720
vn -0.1799 -0.8179 0.5465
vn 0.2345 -0.8083 0.5401
vn -0.1799 -0.6956 0.6956
vn 0.2345 -0.6874 0.6874
vn -0.1799 -0.5465 0.8179
vn 0.2345 -0.5401 0.8083
vn -0.1799 -0.3764 0.9088
vn 0.2345 -0.3720 0.8981
vn -0.1799 -0.1919 0.9648
vn 0.2345 -0.1897 0.9534
vn -0.1799 -0.0000 0.9837
vn 0.2345 -0.0000 0.9721
vn -0.1799 0.1919 0.9648
vn 0.2345 0.1897 0.9534
vn -0.1799 0.3764 0.9088
vn 0.2345 0.3720 0.8981
vn -0.1799 0.5465 0.8179
vn 0.2345 0.5401 0.8083
vn -0.1799 0.6956 0.6956
vn 0.2345 0.6874 0.6874
vn -0.1799 0.8179 0.5465
vn 0.2345 0.8083 0.5401
vn -0.1799 0.9088 0.3764
vn 0.2345 0.8981 0.3720
vn -0.1799 0.9648 0.1919
vn 0.2345 0.9534 0.1897
vn -0.1799 0.9837 -0.0000
vn 0.2345 0.9721 -0.0000
vn -0.1799 0.9648 -0.1919
vn 0.2345 0.9534 -0.1897
vn -0.1799 0.9088 -0.3764
vn 0.2345 0.8981 -0.3720
vn -0.1799 0.8179 -0.5465
vn 0.2345 0.8083 -0.5401
vn -0.1799 0.6956 -0.6956
vn 0.2345 0.6874 -0.6874
vn -0.1799 0.5465 -0.8179
vn 0.2345 0.5401 -0.8083
vn -0.1799 0.3764 -0.9088
vn 0.2345 0.3720 -0.8981
vn -0.1799 0.1919 -0.9648
vn -0.1760 0.3767 -0.9095
vn -0.1760 0.1920 -0.9655
vn 0.2345 0.1897 -0.9534
vn -1.0000 -0.0000 -0.0000
vn -0.0000 0.1951 -0.9808
vn 0.0448 0.1949 -0.9798
vn 0.0448 -0.0000 -0.9990
vn -0.0000 -0.0000 -1.0000
vn -0.0000 0.3827 -0.9239
vn 0.0448 0.3823 -0.9230
vn -0.0000 0.5556 -0.8315
vn 0.0448 0.5550 -0.8306
vn -0.0000 0.7071 -0.7071
vn 0.0448 0.7064 -0.7064
vn -0.0000 0.8315 -0.5556
vn 0.0448 0.8306 -0.5550
vn -0.0000 0.9239 -0.3827
vn 0.0448 0.9230 -0.3823
vn -0.0000 0.9808 -0.1951
vn 0.0448 0.9798 -0.1949
vn -0.0000 1.0000 -0.0000
vn 0.0448 0.9990 -0.0000
vn -0.0000 0.9808 0.1951
vn 0.0448 0.9798 0.1949
vn -0.0000 0.9239 0.3827
vn 0.0448 0.9230 0.3823
vn -0.0000 0.8315 0.5556
vn 0.0448 0.8306 0.5550
vn -0.0000 0.7071 0.7071
vn 0.0448 0.7064 0.7064
vn -0.0000 0.5556 0.8315
vn 0.0448 0.5550 0.8306
vn -0.0000 0.3827 0.9239
vn 0.0448 0.3823 0.9230
vn -0.0000 0.1951 0.9808
vn 0.0448 0.1949 0.9798
vn -0.0000 -0.0000 1.0000
vn 0.0448 -0.0000 0.9990
vn -0.0000 -0.1951 0.9808
vn 0.0448 -0.1949 0.9798
vn -0.0000 -0.3827 0.9239
vn 0.0448 -0.3823 0.9230
vn -0.0000 -0.5556 0.8315
vn 0.0448 -0.5550 0.8306
vn -0.0000 -0.7071 0.7071
vn 0.0448 -0.7064 0.7064
vn -0.0000 -0.8315 0.5556
vn 0.0448 -0.8306 0.5550
vn -0.0000 -0.9239 0.3827
vn 0.0448 -0.9230 0.3823
vn -0.0000 -0.9808 0.1951
vn 0.0448 -0.9798 0.1949
vn -0.0000 -1.0000 -0.0000
vn 0.0448 -0.9990 -0.0000
vn -0.0000 -0.9808 -0.1951
vn 0.0448 -0.9798 -0.1949
vn -0.0000 -0.9239 -0.3827
vn 0.0448 -0.9230 -0.3823
vn -0.0000 -0.8315 -0.5556
vn 0.0448 -0.8306 -0.5550
vn -0.0000 -0.7071 -0.7071
vn 0.0448 -0.7064 -0.7064
vn -0.0000 -0.5556 -0.8315
vn 0.0448 -0.5550 -0.8306
vn -0.0000 -0.3827 -0.9239
vn 0.0448 -0.3823 -0.9230
vn -0.0000 -0.1951 -0.9808
vn 0.0448 -0.1949 -0.9798
vn 0.0954 0.1942 -0.9763
vn 0.0954 -0.0000 -0.9954
vn 0.0954 0.3809 -0.9197
vn 0.0954 0.5530 -0.8277
vn 0.0954 0.7039 -0.7039
vn 0.0954 0.8277 -0.5530
vn 0.0954 0.9197 -0.3809
vn 0.0954 0.9763 -0.1942
vn 0.0954 0.9954 -0.0000
vn 0.0954 0.9763 0.1942
vn 0.0954 0.9197 0.3809
vn 0.0954 0.8277 0.5530
vn 0.0954 0.7039 0.7039
vn 0.0954 0.5530 0.8277
vn 0.0954 0.3809 0.9197
vn 0.0954 0.1942 0.9763
vn 0.0954 -0.0000 0.9954
vn 0.0954 -0.1942 0.9763
vn 0.0954 -0.3809 0.9197
vn 0.0954 -0.5530 0.8277
vn 0.0954 -0.7039 0.7039
vn 0.0954 -0.8277 0.5530
vn 0.0954 -0.9197 0.3809
vn 0.0954 -0.9763 0.1942
vn 0.0954 -0.9954 -0.0000
vn 0.0954 -0.9763 -0.1942
vn 0.0954 -0.9197 -0.3809
vn 0.0954 -0.8277 -0.5530
vn 0.0954 -0.7039 -0.7039
vn 0.0954 -0.5530 -0.8277
vn 0.0954 -0.3809 -0.9197
vn 0.0954 -0.1942 -0.9763
vn 0.0508 0.1948 -0.9795
vn 0.0508 -0.0000 -0.9987
vn 0.0508 0.3822 -0.9227
vn 0.0508 0.5549 -0.8304
vn 0.0508 0.7062 -0.7062
vn 0.0508 0.8304 -0.5549
vn 0.0508 0.9227 -0.3822
vn 0.0508 0.9795 -0.1948
vn 0.0508 0.9987 -0.0000
vn 0.0508 0.9795 0.1948
vn 0.0508 0.9227 0.3822
vn 0.0508 0.8304 0.5549
vn 0.0508 0.7062 0.7062
vn 0.0508 0.5549 0.8304
vn 0.0508 0.3822 0.9227
vn 0.0508 0.1948 0.9795
vn 0.0508 -0.0000 0.9987
vn 0.0508 -0.1948 0.9795
vn 0.0508 -0.3822 0.9227
vn 0.0508 -0.5549 0.8304
vn 0.0508 -0.7062 0.7062
vn 0.0508 -0.8304 0.5549
vn 0.0508 -0.9227 0.3822
vn 0.0508 -0.9795 0.1948
vn 0.0508 -0.9987 -0.0000
vn 0.0508 -0.9795 -0.1948
vn 0.0508 -0.9227 -0.3822
vn 0.0508 -0.8304 -0.5549
vn 0.0508 -0.7062 -0.7062
vn 0.0508 -0.5549 -0.8304
vn 0.0508 -0.3822 -0.9227
vn 0.0508 -0.1948 -0.9795
vn 0.0210 0.1950 -0.9806
vn 0.0210 -0.0000 -0.9998
vn 0.0210 0.3826 -0.9237
vn 0.0210 0.5554 -0.8313
vn 0.0210 0.7070 -0.7070
vn 0.0210 0.8313 -0.5554
vn 0.0210 0.9237 -0.3826
vn 0.0210 0.9806 -0.1950
vn 0.0210 0.9998 -0.0000
vn 0.0210 0.9806 0.1950
vn 0.0210 0.9237 0.3826
vn 0.0210 0.8313 0.5554
vn 0.0210 0.7070 0.7070
vn 0.0210 0.5554 0.8313
vn 0.0210 0.3826 0.9237
vn 0.0210 0.1950 0.9806
vn 0.0210 -0.0000 0.9998
vn 0.0210 -0.1950 0.9806
vn 0.0210 -0.3826 0.9237
vn 0.0210 -0.5554 0.8313
vn 0.0210 -0.7070 0.7070
vn 0.0210 -0.8313 0.5554
vn 0.0210 -0.9237 0.3826
vn 0.0210 -0.9806 0.1950
vn 0.0210 -0.9998 -0.0000
vn 0.0210 -0.9806 -0.1950
vn 0.0210 -0.9237 -0.3826
vn 0.0210 -0.8313 -0.5554
vn 0.0210 -0.7070 -0.7070
vn 0.0210 -0.5554 -0.8313
vn 0.0210 -0.3826 -0.9237
vn 0.0210 -0.1950 -0.9806
vn 0.2484 0.1890 -0.9500
vn 0.2484 -0.0000 -0.9687
vn 0.2484 0.3707 -0.8949
vn 0.2484 0.5382 -0.8054
vn 0.2484 0.6849 -0.6849
vn 0.2484 0.8054 -0.5382
vn 0.2484 0.8949 -0.3707
vn 0.2484 0.9500 -0.1890
vn 0.2484 0.9687 -0.0000
vn 0.2484 0.9500 0.1890
vn 0.2484 0.8949 0.3707
vn 0.2484 0.8054 0.5382
vn 0.2484 0.6849 0.6849
vn 0.2484 0.5382 0.8054
vn 0.2484 0.3707 0.8949
vn 0.2484 0.1890 0.9500
vn 0.2484 -0.0000 0.9687
vn 0.2484 -0.1890 0.9500
vn 0.2484 -0.3707 0.8949
vn 0.2484 -0.5382 0.8054
vn 0.2484 -0.6849 0.6849
vn 0.2484 -0.8054 0.5382
vn 0.2484 -0.8949 0.3707
vn 0.2484 -0.9500 0.1890
vn 0.2484 -0.9687 -0.0000
vn 0.2484 -0.9500 -0.1890
vn 0.2484 -0.8949 -0.3707
vn 0.2484 -0.8054 -0.5382
vn 0.2484 -0.6849 -0.6849
vn 0.2484 -0.5382 -0.8054
vn 0.2484 -0.3707 -0.8949
vn 0.2484 -0.1890 -0.9500
vn -0.1760 -0.1920 0.9655
vn -0.1760 -0.3767 0.9095
vn -0.1760 -0.9844 -0.0000
vn -0.1760 -0.9655 0.1920
vn -0.1760 0.1920 0.9655
vn -0.1760 0.3767 0.9095
vn -0.1760 0.9095 -0.3767
vn -0.1760 0.8185 -0.5469
vn -0.1760 -0.6961 -0.6961
vn -0.1760 -0.8185 -0.5469
vn -0.1760 -0.5469 0.8185
vn -0.1760 0.9095 0.3767
vn -0.1760 0.9655 0.1920
vn -0.1760 -0.0000 -0.9844
vn -0.1760 -0.1920 -0.9655
vn -0.1760 -0.9095 0.3767
vn -0.1760 0.5469 0.8185
vn -0.1760 0.6961 -0.6961
vn -0.1760 -0.9095 -0.3767
vn -0.1760 0.9844 -0.0000
vn -0.1760 -0.3767 -0.9095
vn -0.1760 -0.8185 0.5469
vn -0.1760 0.6961 0.6961
vn -0.1760 0.5469 -0.8185
vn -0.1760 -0.9655 -0.1920
vn -0.1760 -0.0000 0.9844
vn -0.1760 0.9655 -0.1920
vn -0.1760 -0.5469 -0.8185
vn -0.1760 -0.6961 0.6961
vn -0.1760 0.8185 0.5469
vn 1.0000 -0.0000 -0.0000
vn 0.8314 0.5557 -0.0000
vn 0.9238 0.3829 -0.0000
vn 0.9240 0.3825 -0.0000
vn 0.8316 0.5554 -0.0000
vn -0.3828 -0.9238 -0.0000
vn -0.5557 -0.8314 -0.0000
vn -0.5555 -0.8315 -0.0000
vn -0.3826 -0.9239 -0.0000
vn -0.1951 0.9808 -0.0000
vn 0.7070 0.7072 -0.0000
vn 0.7072 0.7070 -0.0000
vn -0.1951 -0.9808 -0.0000
vn -0.3826 0.9239 -0.0000
vn -0.3828 0.9238 -0.0000
vn 0.5555 0.8315 -0.0000
vn 0.5557 0.8314 -0.0000
vn -0.5555 0.8315 -0.0000
vn -0.5557 0.8314 -0.0000
vn 0.3826 0.9239 -0.0000
vn 0.3828 0.9238 -0.0000
vn 0.1951 -0.9808 -0.0000
vn -0.7070 0.7072 -0.0000
vn -0.7072 0.7070 -0.0000
vn 0.1951 0.9808 -0.0000
vn 0.3828 -0.9238 -0.0000
vn 0.3826 -0.9239 -0.0000
vn -0.8314 0.5557 -0.0000
vn -0.8316 0.5554 -0.0000
vn 0.5557 -0.8314 -0.0000
vn 0.5555 -0.8315 -0.0000
vn -0.9238 0.3829 -0.0000
vn -0.9240 0.3825 -0.0000
vn 0.7072 -0.7070 -0.0000
vn 0.7070 -0.7072 -0.0000
vn -0.9807 0.1953 -0.0000
vn -0.9808 0.1949 -0.0000
vn 0.8316 -0.5554 -0.0000
vn 0.8314 -0.5557 -0.0000
vn -1.0000 0.0002 -0.0000
vn -1.0000 -0.0002 -0.0000
vn 0.9240 -0.3825 -0.0000
vn 0.9238 -0.3829 -0.0000
vn -0.9808 -0.1949 -0.0000
vn -0.9807 -0.1953 -0.0000
vn 0.9808 -0.1949 -0.0000
vn 0.9807 -0.1953 -0.0000
vn -0.9240 -0.3825 -0.0000
vn -0.9238 -0.3829 -0.0000
vn 1.0000 0.0002 -0.0000
vn 1.0000 -0.0002 -0.0000
vn -0.8316 -0.5554 -0.0000
vn -0.8314 -0.5557 -0.0000
vn 0.9807 0.1953 -0.0000
vn 0.9808 0.1949 -0.0000
vn -0.7072 -0.7070 -0.0000
vn -0.7070 -0.7072 -0.0000
vn -0.3238 0.7802 0.5352
vn -0.1651 0.8284 0.5352
vn -0.3239 0.7801 0.5352
vn 0.4700 0.7019 0.5352
vn 0.5981 0.5965 0.5352
vn 0.5982 0.5964 0.5352
vn 0.4701 0.7018 0.5352
vn -0.0000 -0.8447 0.5352
vn -0.1645 -0.8285 0.5352
vn -0.1644 -0.8286 0.5352
vn -0.4700 0.7019 0.5352
vn -0.4701 0.7018 0.5352
vn 0.3238 0.7802 0.5352
vn 0.3239 0.7801 0.5352
vn 0.1645 -0.8285 0.5352
vn 0.1644 -0.8286 0.5352
vn -0.5981 0.5965 0.5352
vn -0.5982 0.5964 0.5352
vn 0.1651 0.8284 0.5352
vn 0.3227 -0.7806 0.5352
vn 0.3226 -0.7807 0.5352
vn -0.7031 0.4682 0.5352
vn -0.7032 0.4680 0.5352
vn -0.0000 0.8447 0.5352
vn 0.4686 -0.7028 0.5352
vn 0.4684 -0.7029 0.5352
vn -0.7810 0.3219 0.5352
vn -0.7811 0.3217 0.5352
vn 0.5965 -0.5981 0.5352
vn 0.5964 -0.5982 0.5352
vn -0.8288 0.1633 0.5352
vn -0.8288 0.1630 0.5352
vn 0.7016 -0.4704 0.5352
vn 0.7015 -0.4706 0.5352
vn -0.8447 -0.0016 0.5352
vn -0.8447 -0.0018 0.5352
vn 0.7799 -0.3246 0.5352
vn 0.7798 -0.3248 0.5352
vn -0.8282 -0.1663 0.5352
vn -0.8281 -0.1666 0.5352
vn 0.8282 -0.1663 0.5352
vn 0.8281 -0.1666 0.5352
vn -0.7799 -0.3246 0.5352
vn -0.7798 -0.3248 0.5352
vn 0.8447 -0.0016 0.5352
vn 0.8447 -0.0018 0.5352
vn -0.7016 -0.4704 0.5352
vn -0.7015 -0.4706 0.5352
vn 0.8288 0.1633 0.5352
vn 0.8288 0.1630 0.5352
vn -0.5965 -0.5981 0.5352
vn -0.5964 -0.5982 0.5352
vn 0.7810 0.3219 0.5352
vn 0.7811 0.3217 0.5352
vn -0.4686 -0.7028 0.5352
vn -0.4684 -0.7029 0.5352
vn 0.7031 0.4682 0.5352
vn 0.7032 0.4680 0.5352
vn -0.3227 -0.7806 0.5352
vn -0.3226 -0.7807 0.5352
vn 0.3828 -0.9239 -0.0000
vn -0.9238 0.3828 -0.0000
vn -0.9239 0.3825 -0.0000
vn 0.9239 -0.3825 -0.0000
vn 0.9238 -0.3828 -0.0000
vn -0.9239 -0.3825 -0.0000
vn -0.9238 -0.3828 -0.0000
vn 0.9238 0.3828 -0.0000
vn 0.9239 0.3825 -0.0000
vn -0.3828 -0.9239 -0.0000
vn -0.3828 0.9239 -0.0000
vn 0.3828 0.9239 -0.0000
vn -0.0000 0.0031 -1.0000
vn -0.0000 -0.0033 1.0000
vt 1.000000 0.962793
vt 1.000000 1.000000
vt 0.968750 1.000000
vt 0.968750 0.962793
vt 0.937500 1.000000
vt 0.937500 0.962793
vt 0.906250 1.000000
vt 0.906250 0.962793
vt 0.875000 1.000000
vt 0.875000 0.962793
vt 0.843750 1.000000
vt 0.843750 0.962793
vt 0.812500 1.000000
vt 0.812500 0.962793
vt 0.781250 1.000000
vt 0.781250 0.962793
vt 0.750000 1.000000
vt 0.750000 0.962793
vt 0.718750 1.000000
vt 0.718750 0.962793
vt 0.687500 1.000000
vt 0.687500 0.962793
vt 0.656250 1.000000
vt 0.656250 0.962793
vt 0.625000 1.000000
vt 0.625000 0.962793
vt 0.593750 1.000000
vt 0.593750 0.962793
vt 0.562500 1.000000
vt 0.562500 0.962793
vt 0.531250 1.000000
vt 0.531250 0.962793
vt 0.500000 1.000000
vt 0.500000 0.962793
vt 0.468750 1.000000
vt 0.468750 0.962793
vt 0.437500 1.000000
vt 0.437500 0.962793
vt 0.406250 1.000000
vt 0.406250 0.962793
vt 0.375000 1.000000
vt 0.375000 0.962793
vt 0.343750 1.000000
vt 0.343750 0.962793
vt 0.312500 1.000000
vt 0.312500 0.962793
vt 0.281250 1.000000
vt 0.281250 0.962793
vt 0.250000 1.000000
vt 0.250000 0.962793
vt 0.218750 1.000000
vt 0.218750 0.962793
vt 0.187500 1.000000
vt 0.187500 0.962793
vt 0.156250 1.000000
vt 0.156250 0.962793
vt 0.125000 1.000000
vt 0.125000 0.962793
vt 0.093750 1.000000
vt 0.093750 0.962793
vt 0.062500 1.000000
vt 0.062500 0.962793
vt 0.031250 1.000000
vt 0.031250 0.962793
vt 0.000000 1.000000
vt 0.000000 0.962793
vt 0.750000 0.490000
vt 0.796822 0.485388
vt 0.841844 0.471731
vt 0.883337 0.449553
vt 0.919706 0.419706
vt 0.949553 0.383337
vt 0.971731 0.341844
vt 0.985388 0.296822
vt 0.990000 0.250000
vt 0.985388 0.203178
vt 0.971731 0.158156
vt 0.949553 0.116663
vt 0.919706 0.080294
vt 0.883337 0.050447
vt 0.841844 0.028269
vt 0.796822 0.014612
vt 0.750000 0.010000
vt 0.703178 0.014612
vt 0.658156 0.028269
vt 0.616663 0.050447
vt 0.580294 0.080294
vt 0.550447 0.116663
vt 0.528269 0.158156
vt 0.514612 0.203178
vt 0.510000 0.250000
vt 0.514612 0.296822
vt 0.528269 0.341844
vt 0.550447 0.383337
vt 0.580294 0.419706
vt 0.616663 0.449553
vt 0.658156 0.471731
vt 0.703178 0.485388
vt 0.031250 0.500000
vt 0.031250 0.515560
vt 0.000000 0.515560
vt 0.000000 0.500000
vt 0.062500 0.500000
vt 0.062500 0.515560
vt 0.093750 0.500000
vt 0.093750 0.515560
vt 0.125000 0.500000
vt 0.125000 0.515560
vt 0.156250 0.500000
vt 0.156250 0.515560
vt 0.187500 0.500000
vt 0.187500 0.515560
vt 0.218750 0.500000
vt 0.218750 0.515560
vt 0.250000 0.500000
vt 0.250000 0.515560
vt 0.281250 0.500000
vt 0.281250 0.515560
vt 0.312500 0.500000
vt 0.312500 0.515560
vt 0.343750 0.500000
vt 0.343750 0.515560
vt 0.375000 0.500000
vt 0.375000 0.515560
vt 0.406250 0.500000
vt 0.406250 0.515560
vt 0.437500 0.500000
vt 0.437500 0.515560
vt 0.468750 0.500000
vt 0.468750 0.515560
vt 0.500000 0.500000
vt 0.500000 0.515560
vt 0.531250 0.500000
vt 0.531250 0.515560
vt 0.562500 0.500000
vt 0.562500 0.515560
vt 0.593750 0.500000
vt 0.593750 0.515560
vt 0.625000 0.500000
vt 0.625000 0.515560
vt 0.656250 0.500000
vt 0.656250 0.515560
vt 0.687500 0.500000
vt 0.687500 0.515560
vt 0.718750 0.500000
vt 0.718750 0.515560
vt 0.750000 0.500000
vt 0.750000 0.515560
vt 0.781250 0.500000
vt 0.781250 0.515560
vt 0.812500 0.500000
vt 0.812500 0.515560
vt 0.843750 0.500000
vt 0.843750 0.515560
vt 0.875000 0.500000
vt 0.875000 0.515560
vt 0.906250 0.500000
vt 0.906250 0.515560
vt 0.937500 0.500000
vt 0.937500 0.515560
vt 0.968750 0.500000
vt 0.968750 0.515560
vt 1.000000 0.500000
vt 1.000000 0.515560
vt 0.031250 0.577964
vt 0.000000 0.577964
vt 0.062500 0.577964
vt 0.093750 0.577964
vt 0.125000 0.577964
vt 0.156250 0.577964
vt 0.187500 0.577964
vt 0.218750 0.577964
vt 0.250000 0.577964
vt 0.281250 0.577964
vt 0.312500 0.577964
vt 0.343750 0.577964
vt 0.375000 0.577964
vt 0.406250 0.577964
vt 0.437500 0.577964
vt 0.468750 0.577964
vt 0.500000 0.577964
vt 0.531250 0.577964
vt 0.562500 0.577964
vt 0.593750 0.577964
vt 0.625000 0.577964
vt 0.656250 0.577964
vt 0.687500 0.577964
vt 0.718750 0.577964
vt 0.750000 0.577964
vt 0.781250 0.577964
vt 0.812500 0.577964
vt 0.843750 0.577964
vt 0.875000 0.577964
vt 0.906250 0.577964
vt 0.937500 0.577964
vt 0.968750 0.577964
vt 1.000000 0.577964
vt 0.031250 0.702749
vt 0.000000 0.702749
vt 0.062500 0.702749
vt 0.093750 0.702749
vt 0.125000 0.702749
vt 0.156250 0.702749
vt 0.187500 0.702749
vt 0.218750 0.702749
vt 0.250000 0.702749
vt 0.281250 0.702749
vt 0.312500 0.702749
vt 0.343750 0.702749
vt 0.375000 0.702749
vt 0.406250 0.702749
vt 0.437500 0.702749
vt 0.468750 0.702749
vt 0.500000 0.702749
vt 0.531250 0.702749
vt 0.562500 0.702749
vt 0.593750 0.702749
vt 0.625000 0.702749
vt 0.656250 0.702749
vt 0.687500 0.702749
vt 0.718750 0.702749
vt 0.750000 0.702749
vt 0.781250 0.702749
vt 0.812500 0.702749
vt 0.843750 0.702749
vt 0.875000 0.702749
vt 0.906250 0.702749
vt 0.937500 0.702749
vt 0.968750 0.702749
vt 1.000000 0.702749
vt 0.031250 0.737762
vt 0.000000 0.737762
vt 0.062500 0.737762
vt 0.093750 0.737762
vt 0.125000 0.737762
vt 0.156250 0.737762
vt 0.187500 0.737762
vt 0.218750 0.737762
vt 0.250000 0.737762
vt 0.281250 0.737762
vt 0.312500 0.737762
vt 0.343750 0.737762
vt 0.375000 0.737762
vt 0.406250 0.737762
vt 0.437500 0.737762
vt 0.468750 0.737762
vt 0.500000 0.737762
vt 0.531250 0.737762
vt 0.562500 0.737762
vt 0.593750 0.737762
vt 0.625000 0.737762
vt 0.656250 0.737762
vt 0.687500 0.737762
vt 0.718750 0.737762
vt 0.750000 0.737762
vt 0.781250 0.737762
vt 0.812500 0.737762
vt 0.843750 0.737762
vt 0.875000 0.737762
vt 0.906250 0.737762
vt 0.937500 0.737762
vt 0.968750 0.737762
vt 1.000000 0.737762
vt 0.031250 0.925731
vt 0.000000 0.925731
vt 0.062500 0.925731
vt 0.093750 0.925731
vt 0.125000 0.925731
vt 0.156250 0.925731
vt 0.187500 0.925731
vt 0.218750 0.925731
vt 0.250000 0.925731
vt 0.281250 0.925731
vt 0.312500 0.925731
vt 0.343750 0.925731
vt 0.375000 0.925731
vt 0.406250 0.925731
vt 0.437500 0.925731
vt 0.468750 0.925731
vt 0.500000 0.925731
vt 0.531250 0.925731
vt 0.562500 0.925731
vt 0.593750 0.925731
vt 0.625000 0.925731
vt 0.656250 0.925731
vt 0.687500 0.925731
vt 0.718750 0.925731
vt 0.750000 0.925731
vt 0.781250 0.925731
vt 0.812500 0.925731
vt 0.843750 0.925731
vt 0.875000 0.925731
vt 0.906250 0.925731
vt 0.937500 0.925731
vt 0.968750 0.925731
vt 1.000000 0.925731
vt 0.296822 0.485388
vt 0.250000 0.490000
vt 0.203178 0.485388
vt 0.158156 0.471731
vt 0.116663 0.449553
vt 0.080294 0.419706
vt 0.050447 0.383337
vt 0.028269 0.341844
vt 0.014612 0.296822
vt 0.010000 0.250000
vt 0.014612 0.203178
vt 0.028269 0.158156
vt 0.050447 0.116663
vt 0.080294 0.080294
vt 0.116663 0.050447
vt 0.158156 0.028269
vt 0.203178 0.014612
vt 0.250000 0.010000
vt 0.296822 0.014612
vt 0.341844 0.028269
vt 0.383337 0.050447
vt 0.419706 0.080294
vt 0.449553 0.116663
vt 0.471731 0.158156
vt 0.485388 0.203178
vt 0.490000 0.250000
vt 0.485388 0.296822
vt 0.471731 0.341844
vt 0.449553 0.383337
vt 0.419706 0.419706
vt 0.383337 0.449553
vt 0.341844 0.471731
vt 0.000000 0.000000
s 1
usemtl Material.002
f 193/1/1 2/2/2 4/3/3 194/4/4
f 194/4/4 4/3/3 6/5/5 195/6/6
f 195/6/6 6/5/5 8/7/7 196/8/8
f 196/8/8 8/7/7 10/9/9 197/10/10
f 197/10/10 10/9/9 12/11/11 198/12/12
f 198/12/12 12/11/11 14/13/13 199/14/14
f 199/14/14 14/13/13 16/15/15 200/16/16
f 200/16/16 16/15/15 18/17/17 201/18/18
f 201/18/18 18/17/17 20/19/19 202/20/20
f 202/20/20 20/19/19 22/21/21 203/22/22
f 203/22/22 22/21/21 24/23/23 204/24/24
f 204/24/24 24/23/23 26/25/25 205/26/26
f 205/26/26 26/25/25 28/27/27 206/28/28
f 206/28/28 28/27/27 30/29/29 207/30/30
f 207/30/30 30/29/29 32/31/31 208/32/32
f 208/32/32 32/31/31 34/33/33 209/34/34
f 209/34/34 34/33/33 36/35/35 210/36/36
f 210/36/36 36/35/35 38/37/37 211/38/38
f 211/38/38 38/37/37 40/39/39 212/40/40
f 212/40/40 40/39/39 42/41/41 213/42/42
f 213/42/42 42/41/41 44/43/43 214/44/44
f 214/44/44 44/43/43 46/45/45 215/46/46
f 215/46/46 46/45/45 48/47/47 216/48/48
f 216/48/48 48/47/47 50/49/49 217/50/50
f 217/50/50 50/49/49 52/51/51 218/52/52
f 218/52/52 52/51/51 54/53/53 219/54/54
f 219/54/54 54/53/53 56/55/55 220/56/56
f 220/56/56 56/55/55 58/57/57 221/58/58
f 221/58/58 58/57/57 60/59/59 222/60/60
f 222/60/60 60/59/59 62/61/61 223/62/62
f 64/63/63 62/61/61 287/61/64 288/63/65
f 223/62/62 62/61/61 64/63/63 224/64/66
f 224/64/66 64/63/63 2/65/2 193/66/1
f 1/67/67 3/68/67 5/69/67 7/70/67 9/71/67 11/72/67 13/73/67 15/74/67 17/75/67 19/76/67 21/77/67 23/78/67 25/79/67 27/80/67 29/81/67 31/82/67 33/83/67 35/84/67 37/85/67 39/86/67 41/87/67 43/88/67 45/89/67 47/90/67 49/91/67 51/92/67 53/93/67 55/94/67 57/95/67 59/96/67 61/97/67 63/98/67
f 63/99/68 96/100/69 65/101/70 1/102/71
f 61/103/72 95/104/73 96/100/69 63/99/68
f 59/105/74 94/106/75 95/104/73 61/103/72
f 57/107/76 93/108/77 94/106/75 59/105/74
f 55/109/78 92/110/79 93/108/77 57/107/76
f 53/111/80 91/112/81 92/110/79 55/109/78
f 51/113/82 90/114/83 91/112/81 53/111/80
f 49/115/84 89/116/85 90/114/83 51/113/82
f 47/117/86 88/118/87 89/116/85 49/115/84
f 45/119/88 87/120/89 88/118/87 47/117/86
f 43/121/90 86/122/91 87/120/89 45/119/88
f 41/123/92 85/124/93 86/122/91 43/121/90
f 39/125/94 84/126/95 85/124/93 41/123/92
f 37/127/96 83/128/97 84/126/95 39/125/94
f 35/129/98 82/130/99 83/128/97 37/127/96
f 33/131/100 81/132/101 82/130/99 35/129/98
f 31/133/102 80/134/103 81/132/101 33/131/100
f 29/135/104 79/136/105 80/134/103 31/133/102
f 27/137/106 78/138/107 79/136/105 29/135/104
f 25/139/108 77/140/109 78/138/107 27/137/106
f 23/141/110 76/142/111 77/140/109 25/139/108
f 21/143/112 75/144/113 76/142/111 23/141/110
f 19/145/114 74/146/115 75/144/113 21/143/112
f 17/147/116 73/148/117 74/146/115 19/145/114
f 15/149/118 72/150/119 73/148/117 17/147/116
f 13/151/120 71/152/121 72/150/119 15/149/118
f 11/153/122 70/154/123 71/152/121 13/151/120
f 9/155/124 69/156/125 70/154/123 11/153/122
f 7/157/126 68/158/127 69/156/125 9/155/124
f 5/159/128 67/160/129 68/158/127 7/157/126
f 3/161/130 66/162/131 67/160/129 5/159/128
f 1/163/71 65/164/70 66/162/131 3/161/130
f 96/100/69 128/165/132 97/166/133 65/101/70
f 95/104/73 127/167/134 128/165/132 96/100/69
f 94/106/75 126/168/135 127/167/134 95/104/73
f 93/108/77 125/169/136 126/168/135 94/106/75
f 92/110/79 124/170/137 125/169/136 93/108/77
f 91/112/81 123/171/138 124/170/137 92/110/79
f 90/114/83 122/172/139 123/171/138 91/112/81
f 89/116/85 121/173/140 122/172/139 90/114/83
f 88/118/87 120/174/141 121/173/140 89/116/85
f 87/120/89 119/175/142 120/174/141 88/118/87
f 86/122/91 118/176/143 119/175/142 87/120/89
f 85/124/93 117/177/144 118/176/143 86/122/91
f 84/126/95 116/178/145 117/177/144 85/124/93
f 83/128/97 115/179/146 116/178/145 84/126/95
f 82/130/99 114/180/147 115/179/146 83/128/97
f 81/132/101 113/181/148 114/180/147 82/130/99
f 80/134/103 112/182/149 113/181/148 81/132/101
f 79/136/105 111/183/150 112/182/149 80/134/103
f 78/138/107 110/184/151 111/183/150 79/136/105
f 77/140/109 109/185/152 110/184/151 78/138/107
f 76/142/111 108/186/153 109/185/152 77/140/109
f 75/144/113 107/187/154 108/186/153 76/142/111
f 74/146/115 106/188/155 107/187/154 75/144/113
f 73/148/117 105/189/156 106/188/155 74/146/115
f 72/150/119 104/190/157 105/189/156 73/148/117
f 71/152/121 103/191/158 104/190/157 72/150/119
f 70/154/123 102/192/159 103/191/158 71/152/121
f 69/156/125 101/193/160 102/192/159 70/154/123
f 68/158/127 100/194/161 101/193/160 69/156/125
f 67/160/129 99/195/162 100/194/161 68/158/127
f 66/162/131 98/196/163 99/195/162 67/160/129
f 65/164/70 97/197/133 98/196/163 66/162/131
f 128/165/132 160/198/164 129/199/165 97/166/133
f 127/167/134 159/200/166 160/198/164 128/165/132
f 126/168/135 158/201/167 159/200/166 127/167/134
f 125/169/136 157/202/168 158/201/167 126/168/135
f 124/170/137 156/203/169 157/202/168 125/169/136
f 123/171/138 155/204/170 156/203/169 124/170/137
f 122/172/139 154/205/171 155/204/170 123/171/138
f 121/173/140 153/206/172 154/205/171 122/172/139
f 120/174/141 152/207/173 153/206/172 121/173/140
f 119/175/142 151/208/174 152/207/173 120/174/141
f 118/176/143 150/209/175 151/208/174 119/175/142
f 117/177/144 149/210/176 150/209/175 118/176/143
f 116/178/145 148/211/177 149/210/176 117/177/144
f 115/179/146 147/212/178 148/211/177 116/178/145
f 114/180/147 146/213/179 147/212/178 115/179/146
f 113/181/148 145/214/180 146/213/179 114/180/147
f 112/182/149 144/215/181 145/214/180 113/181/148
f 111/183/150 143/216/182 144/215/181 112/182/149
f 110/184/151 142/217/183 143/216/182 111/183/150
f 109/185/152 141/218/184 142/217/183 110/184/151
f 108/186/153 140/219/185 141/218/184 109/185/152
f 107/187/154 139/220/186 140/219/185 108/186/153
f 106/188/155 138/221/187 139/220/186 107/187/154
f 105/189/156 137/222/188 138/221/187 106/188/155
f 104/190/157 136/223/189 137/222/188 105/189/156
f 103/191/158 135/224/190 136/223/189 104/190/157
f 102/192/159 134/225/191 135/224/190 103/191/158
f 101/193/160 133/226/192 134/225/191 102/192/159
f 100/194/161 132/227/193 133/226/192 101/193/160
f 99/195/162 131/228/194 132/227/193 100/194/161
f 98/196/163 130/229/195 131/228/194 99/195/162
f 97/197/133 129/230/165 130/229/195 98/196/163
f 160/198/164 192/231/196 161/232/197 129/199/165
f 159/200/166 191/233/198 192/231/196 160/198/164
f 158/201/167 190/234/199 191/233/198 159/200/166
f 157/202/168 189/235/200 190/234/199 158/201/167
f 156/203/169 188/236/201 189/235/200 157/202/168
f 155/204/170 187/237/202 188/236/201 156/203/169
f 154/205/171 186/238/203 187/237/202 155/204/170
f 153/206/172 185/239/204 186/238/203 154/205/171
f 152/207/173 184/240/205 185/239/204 153/206/172
f 151/208/174 183/241/206 184/240/205 152/207/173
f 150/209/175 182/242/207 183/241/206 151/208/174
f 149/210/176 181/243/208 182/242/207 150/209/175
f 148/211/177 180/244/209 181/243/208 149/210/176
f 147/212/178 179/245/210 180/244/209 148/211/177
f 146/213/179 178/246/211 179/245/210 147/212/178
f 145/214/180 177/247/212 178/246/211 146/213/179
f 144/215/181 176/248/213 177/247/212 145/214/180
f 143/216/182 175/249/214 176/248/213 144/215/181
f 142/217/183 174/250/215 175/249/214 143/216/182
f 141/218/184 173/251/216 174/250/215 142/217/183
f 140/219/185 172/252/217 173/251/216 141/218/184
f 139/220/186 171/253/218 172/252/217 140/219/185
f 138/221/187 170/254/219 171/253/218 139/220/186
f 137/222/188 169/255/220 170/254/219 138/221/187
f 136/223/189 168/256/221 169/255/220 137/222/188
f 135/224/190 167/257/222 168/256/221 136/223/189
f 134/225/191 166/258/223 167/257/222 135/224/190
f 133/226/192 165/259/224 166/258/223 134/225/191
f 132/227/193 164/260/225 165/259/224 133/226/192
f 131/228/194 163/261/226 164/260/225 132/227/193
f 130/229/195 162/262/227 163/261/226 131/228/194
f 129/230/165 161/263/197 162/262/227 130/229/195
f 255/264/228 224/64/66 193/66/1 256/265/229
f 254/266/230 223/62/62 224/64/66 255/264/228
f 253/267/231 222/60/60 223/62/62 254/266/230
f 252/268/232 221/58/58 222/60/60 253/267/231
f 251/269/233 220/56/56 221/58/58 252/268/232
f 250/270/234 219/54/54 220/56/56 251/269/233
f 249/271/235 218/52/52 219/54/54 250/270/234
f 248/272/236 217/50/50 218/52/52 249/271/235
f 247/273/237 216/48/48 217/50/50 248/272/236
f 246/274/238 215/46/46 216/48/48 247/273/237
f 245/275/239 214/44/44 215/46/46 246/274/238
f 244/276/240 213/42/42 214/44/44 245/275/239
f 243/277/241 212/40/40 213/42/42 244/276/240
f 242/278/242 211/38/38 212/40/40 243/277/241
f 241/279/243 210/36/36 211/38/38 242/278/242
f 240/280/244 209/34/34 210/36/36 241/279/243
f 239/281/245 208/32/32 209/34/34 240/280/244
f 238/282/246 207/30/30 208/32/32 239/281/245
f 237/283/247 206/28/28 207/30/30 238/282/246
f 236/284/248 205/26/26 206/28/28 237/283/247
f 235/285/249 204/24/24 205/26/26 236/284/248
f 234/286/250 203/22/22 204/24/24 235/285/249
f 233/287/251 202/20/20 203/22/22 234/286/250
f 232/288/252 201/18/18 202/20/20 233/287/251
f 231/289/253 200/16/16 201/18/18 232/288/252
f 230/290/254 199/14/14 200/16/16 231/289/253
f 229/291/255 198/12/12 199/14/14 230/290/254
f 228/292/256 197/10/10 198/12/12 229/291/255
f 227/293/257 196/8/8 197/10/10 228/292/256
f 226/294/258 195/6/6 196/8/8 227/293/257
f 225/295/259 194/4/4 195/6/6 226/294/258
f 256/296/229 193/1/1 194/4/4 225/295/259
f 161/263/197 256/296/229 225/295/259 162/262/227
f 162/262/227 225/295/259 226/294/258 163/261/226
f 163/261/226 226/294/258 227/293/257 164/260/225
f 164/260/225 227/293/257 228/292/256 165/259/224
f 165/259/224 228/292/256 229/291/255 166/258/223
f 166/258/223 229/291/255 230/290/254 167/257/222
f 167/257/222 230/290/254 231/289/253 168/256/221
f 168/256/221 231/289/253 232/288/252 169/255/220
f 169/255/220 232/288/252 233/287/251 170/254/219
f 170/254/219 233/287/251 234/286/250 171/253/218
f 171/253/218 234/286/250 235/285/249 172/252/217
f 172/252/217 235/285/249 236/284/248 173/251/216
f 173/251/216 236/284/248 237/283/247 174/250/215
f 174/250/215 237/283/247 238/282/246 175/249/214
f 175/249/214 238/282/246 239/281/245 176/248/213
f 176/248/213 239/281/245 240/280/244 177/247/212
f 177/247/212 240/280/244 241/279/243 178/246/211
f 178/246/211 241/279/243 242/278/242 179/245/210
f 179/245/210 242/278/242 243/277/241 180/244/209
f 180/244/209 243/277/241 244/276/240 181/243/208
f 181/243/208 244/276/240 245/275/239 182/242/207
f 182/242/207 245/275/239 246/274/238 183/241/206
f 183/241/206 246/274/238 247/273/237 184/240/205
f 184/240/205 247/273/237 248/272/236 185/239/204
f 185/239/204 248/272/236 249/271/235 186/238/203
f 186/238/203 249/271/235 250/270/234 187/237/202
f 187/237/202 250/270/234 251/269/233 188/236/201
f 188/236/201 251/269/233 252/268/232 189/235/200
f 189/235/200 252/268/232 253/267/231 190/234/199
f 190/234/199 253/267/231 254/266/230 191/233/198
f 191/233/198 254/266/230 255/264/228 192/231/196
f 192/231/196 255/264/228 256/265/229 161/232/197
f 272/31/260 271/29/261 303/29/104 304/31/102
f 20/19/19 18/17/17 265/17/262 266/19/263
f 38/37/37 36/35/35 274/35/264 275/37/265
f 56/55/55 54/53/53 283/53/266 284/55/267
f 12/11/11 10/9/9 261/9/268 262/11/269
f 30/29/29 28/27/27 270/27/270 271/29/261
f 48/47/47 46/45/45 279/45/271 280/47/272
f 4/3/3 2/2/2 258/2/273 257/3/274
f 2/65/2 64/63/63 288/63/65 258/65/273
f 22/21/21 20/19/19 266/19/263 267/21/275
f 40/39/39 38/37/37 275/37/265 276/39/276
f 58/57/57 56/55/55 284/55/267 285/57/277
f 14/13/13 12/11/11 262/11/269 263/13/278
f 32/31/31 30/29/29 271/29/261 272/31/260
f 50/49/49 48/47/47 280/47/272 281/49/279
f 6/5/5 4/3/3 257/3/274 259/5/280
f 24/23/23 22/21/21 267/21/275 268/23/281
f 42/41/41 40/39/39 276/39/276 277/41/282
f 60/59/59 58/57/57 285/57/277 286/59/283
f 16/15/15 14/13/13 263/13/278 264/15/284
f 34/33/33 32/31/31 272/31/260 273/33/285
f 52/51/51 50/49/49 281/49/279 282/51/286
f 8/7/7 6/5/5 259/5/280 260/7/287
f 26/25/25 24/23/23 268/23/281 269/25/288
f 44/43/43 42/41/41 277/41/282 278/43/289
f 62/61/61 60/59/59 286/59/283 287/61/64
f 18/17/17 16/15/15 264/15/284 265/17/262
f 36/35/35 34/33/33 273/33/285 274/35/264
f 54/53/53 52/51/51 282/51/286 283/53/266
f 10/9/9 8/7/7 260/7/287 261/9/268
f 28/27/27 26/25/25 269/25/288 270/27/270
f 46/45/45 44/43/43 278/43/289 279/45/271
f 289/297/290 290/298/290 320/299/290 319/300/290 318/301/290 317/302/290 316/303/290 315/304/290 314/305/290 313/306/290 312/307/290 311/308/290 310/309/290 309/310/290 308/311/290 307/312/290 306/313/290 305/314/290 304/315/290 303/316/290 302/317/290 301/318/290 300/319/290 299/320/290 298/321/290 297/322/290 296/323/290 295/324/290 294/325/290 293/326/290 292/327/290 291/328/290
f 259/5/280 257/3/274 289/3/130 291/5/128
f 286/59/283 285/57/277 317/57/76 318/59/74
f 273/33/285 272/31/260 304/31/102 305/33/100
f 260/7/287 259/5/280 291/5/128 292/7/126
f 287/61/64 286/59/283 318/59/74 319/61/72
f 274/35/264 273/33/285 305/33/100 306/35/98
f 261/9/268 260/7/287 292/7/126 293/9/124
f 288/63/65 287/61/64 319/61/72 320/63/68
f 275/37/265 274/35/264 306/35/98 307/37/96
f 262/11/269 261/9/268 293/9/124 294/11/122
f 258/65/273 288/63/65 320/63/68 290/65/71
f 276/39/276 275/37/265 307/37/96 308/39/94
f 263/13/278 262/11/269 294/11/122 295/13/120
f 277/41/282 276/39/276 308/39/94 309/41/92
f 264/15/284 263/13/278 295/13/120 296/15/118
f 278/43/289 277/41/282 309/41/92 310/43/90
f 265/17/262 264/15/284 296/15/118 297/17/116
f 279/45/271 278/43/289 310/43/90 311/45/88
f 266/19/263 265/17/262 297/17/116 298/19/114
f 280/47/272 279/45/271 311/45/88 312/47/86
f 267/21/275 266/19/263 298/19/114 299/21/112
f 281/49/279 280/47/272 312/47/86 313/49/84
f 268/23/281 267/21/275 299/21/112 300/23/110
f 282/51/286 281/49/279 313/49/84 314/51/82
f 269/25/288 268/23/281 300/23/110 301/25/108
f 283/53/266 282/51/286 314/51/82 315/53/80
f 270/27/270 269/25/288 301/25/108 302/27/106
f 284/55/267 283/53/266 315/53/80 316/55/78
f 271/29/261 270/27/270 302/27/106 303/29/104
f 257/3/274 258/2/273 290/2/71 289/3/130
f 285/57/277 284/55/267 316/55/78 317/57/76
f 348/329/291 347/329/292 379/329/293 380/329/294
f 335/329/295 334/329/296 366/329/297 367/329/298
f 322/329/299 321/329/84 353/329/84 354/329/299
f 349/329/300 348/329/291 380/329/294 381/329/301
f 336/329/302 335/329/295 367/329/298 368/329/302
f 323/329/303 322/329/299 354/329/299 355/329/304
f 350/329/305 349/329/300 381/329/301 382/329/306
f 337/329/116 336/329/302 368/329/302 369/329/116
f 324/329/307 323/329/303 355/329/304 356/329/308
f 351/329/309 350/329/305 382/329/306 383/329/310
f 338/329/311 337/329/116 369/329/116 370/329/311
f 325/329/312 324/329/307 356/329/308 357/329/313
f 352/329/314 351/329/309 383/329/310 384/329/314
f 339/329/315 338/329/311 370/329/311 371/329/316
f 326/329/317 325/329/312 357/329/313 358/329/318
f 321/329/84 352/329/314 384/329/314 353/329/84
f 340/329/319 339/329/315 371/329/316 372/329/320
f 327/329/321 326/329/317 358/329/318 359/329/322
f 341/329/323 340/329/319 372/329/320 373/329/324
f 328/329/325 327/329/321 359/329/322 360/329/326
f 342/329/327 341/329/323 373/329/324 374/329/328
f 329/329/329 328/329/325 360/329/326 361/329/330
f 343/329/331 342/329/327 374/329/328 375/329/332
f 330/329/333 329/329/329 361/329/330 362/329/334
f 344/329/335 343/329/331 375/329/332 376/329/336
f 331/329/337 330/329/333 362/329/334 363/329/338
f 345/329/339 344/329/335 376/329/336 377/329/340
f 332/329/341 331/329/337 363/329/338 364/329/342
f 346/329/343 345/329/339 377/329/340 378/329/344
f 333/329/345 332/329/341 364/329/342 365/329/346
f 347/329/292 346/329/343 378/329/344 379/329/293
f 334/329/296 333/329/345 365/329/346 366/329/297
f 355/329/347 354/329/348 386/329/348 387/329/349
f 382/329/350 381/329/351 413/329/352 414/329/353
f 369/329/354 368/329/355 400/329/356 401/329/354
f 356/329/357 355/329/347 387/329/349 388/329/358
f 383/329/359 382/329/350 414/329/353 415/329/360
f 370/329/361 369/329/354 401/329/354 402/329/362
f 357/329/363 356/329/357 388/329/358 389/329/364
f 384/329/365 383/329/359 415/329/360 416/329/365
f 371/329/366 370/329/361 402/329/362 403/329/367
f 358/329/368 357/329/363 389/329/364 390/329/369
f 353/329/370 384/329/365 416/329/365 385/329/370
f 372/329/371 371/329/366 403/329/367 404/329/372
f 359/329/373 358/329/368 390/329/369 391/329/374
f 373/329/375 372/329/371 404/329/372 405/329/376
f 360/329/377 359/329/373 391/329/374 392/329/378
f 374/329/379 373/329/375 405/329/376 406/329/380
f 361/329/381 360/329/377 392/329/378 393/329/382
f 375/329/383 374/329/379 406/329/380 407/329/384
f 362/329/385 361/329/381 393/329/382 394/329/386
f 376/329/387 375/329/383 407/329/384 408/329/388
f 363/329/389 362/329/385 394/329/386 395/329/390
f 377/329/391 376/329/387 408/329/388 409/329/392
f 364/329/393 363/329/389 395/329/390 396/329/394
f 378/329/395 377/329/391 409/329/392 410/329/396
f 365/329/397 364/329/393 396/329/394 397/329/398
f 379/329/399 378/329/395 410/329/396 411/329/400
f 366/329/401 365/329/397 397/329/398 398/329/402
f 380/329/403 379/329/399 411/329/400 412/329/404
f 367/329/405 366/329/401 398/329/402 399/329/406
f 354/329/348 353/329/370 385/329/370 386/329/348
f 381/329/351 380/329/403 412/329/404 413/329/352
f 368/329/355 367/329/405 399/329/406 400/329/356
f 390/329/317 389/329/312 421/329/313 422/329/318
f 385/329/84 416/329/314 448/329/314 417/329/84
f 404/329/319 403/329/407 435/329/316 436/329/320
f 391/329/408 390/329/317 422/329/318 423/329/409
f 405/329/323 404/329/319 436/329/320 437/329/324
f 392/329/325 391/329/408 423/329/409 424/329/326
f 406/329/327 405/329/323 437/329/324 438/329/328
f 393/329/329 392/329/325 424/329/326 425/329/330
f 407/329/410 406/329/327 438/329/328 439/329/411
f 394/329/333 393/329/329 425/329/330 426/329/334
f 408/329/335 407/329/410 439/329/411 440/329/336
f 395/329/412 394/329/333 426/329/334 427/329/413
f 409/329/339 408/329/335 440/329/336 441/329/340
f 396/329/341 395/329/412 427/329/413 428/329/342
f 410/329/343 409/329/339 441/329/340 442/329/344
f 397/329/345 396/329/341 428/329/342 429/329/346
f 411/329/414 410/329/343 442/329/344 443/329/415
f 398/329/296 397/329/345 429/329/346 430/329/297
f 412/329/291 411/329/414 443/329/415 444/329/294
f 399/329/416 398/329/296 430/329/297 431/329/298
f 386/329/299 385/329/84 417/329/84 418/329/299
f 413/329/300 412/329/291 444/329/294 445/329/301
f 400/329/302 399/329/416 431/329/298 432/329/302
f 387/329/303 386/329/299 418/329/299 419/329/417
f 414/329/305 413/329/300 445/329/301 446/329/306
f 401/329/116 400/329/302 432/329/302 433/329/116
f 388/329/307 387/329/303 419/329/417 420/329/308
f 415/329/309 414/329/305 446/329/306 447/329/418
f 402/329/311 401/329/116 433/329/116 434/329/311
f 389/329/312 388/329/307 420/329/308 421/329/313
f 416/329/314 415/329/309 447/329/418 448/329/314
f 403/329/407 402/329/311 434/329/311 435/329/316
f 422/329/419 421/329/419 453/329/419 454/329/419
f 417/329/419 448/329/419 480/329/419 449/329/419
f 436/329/419 435/329/419 467/329/419 468/329/419
f 423/329/419 422/329/419 454/329/419 455/329/419
f 437/329/419 436/329/419 468/329/419 469/329/419
f 424/329/419 423/329/419 455/329/419 456/329/419
f 438/329/419 437/329/419 469/329/419 470/329/419
f 425/329/419 424/329/419 456/329/419 457/329/419
f 439/329/419 438/329/419 470/329/419 471/329/419
f 426/329/419 425/329/419 457/329/419 458/329/419
f 440/329/419 439/329/419 471/329/419 472/329/419
f 427/329/419 426/329/419 458/329/419 459/329/419
f 441/329/419 440/329/419 472/329/419 473/329/419
f 428/329/419 427/329/419 459/329/419 460/329/419
f 442/329/419 441/329/419 473/329/419 474/329/419
f 429/329/419 428/329/419 460/329/419 461/329/419
f 443/329/419 442/329/419 474/329/419 475/329/419
f 430/329/419 429/329/419 461/329/419 462/329/419
f 444/329/419 443/329/419 475/329/419 476/329/419
f 431/329/419 430/329/419 462/329/419 463/329/419
f 418/329/419 417/329/419 449/329/419 450/329/419
f 445/329/419 444/329/419 476/329/419 477/329/419
f 432/329/419 431/329/419 463/329/419 464/329/419
f 419/329/419 418/329/419 450/329/419 451/329/419
f 446/329/419 445/329/419 477/329/419 478/329/419
f 433/329/419 432/329/419 464/329/419 465/329/419
f 420/329/419 419/329/419 451/329/419 452/329/419
f 447/329/419 446/329/419 478/329/419 479/329/419
f 434/329/419 433/329/419 465/329/419 466/329/419
f 421/329/419 420/329/419 452/329/419 453/329/419
f 448/329/419 447/329/419 479/329/419 480/329/419
f 435/329/419 434/329/419 466/329/419 467/329/419
f 457/329/329 456/329/325 488/329/326 489/329/330
f 471/329/410 470/329/327 502/329/328 503/329/411
f 458/329/333 457/329/329 489/329/330 490/329/334
f 472/329/335 471/329/410 503/329/411 504/329/336
f 459/329/412 458/329/333 490/329/334 491/329/413
f 473/329/339 472/329/335 504/329/336 505/329/340
f 460/329/341 459/329/412 491/329/413 492/329/342
f 474/329/343 473/329/339 505/329/340 506/329/344
f 461/329/345 460/329/341 492/329/342 493/329/346
f 475/329/414 474/329/343 506/329/344 507/329/415
f 462/329/296 461/329/345 493/329/346 494/329/297
f 476/329/291 475/329/414 507/329/415 508/329/294
f 463/329/416 462/329/296 494/329/297 495/329/298
f 450/329/299 449/329/84 481/329/84 482/329/299
f 477/329/300 476/329/291 508/329/294 509/329/301
f 464/329/302 463/329/416 495/329/298 496/329/302
f 451/329/303 450/329/299 482/329/299 483/329/417
f 478/329/305 477/329/300 509/329/301 510/329/306
f 465/329/116 464/329/302 496/329/302 497/329/116
f 452/329/307 451/329/303 483/329/417 484/329/308
f 479/329/309 478/329/305 510/329/306 511/329/418
f 466/329/311 465/329/116 497/329/116 498/329/311
f 453/329/312 452/329/307 484/329/308 485/329/313
f 480/329/314 479/329/309 511/329/418 512/329/314
f 467/329/407 466/329/311 498/329/311 499/329/316
f 454/329/317 453/329/312 485/329/313 486/329/318
f 449/329/84 480/329/314 512/329/314 481/329/84
f 468/329/319 467/329/407 499/329/316 500/329/320
f 455/329/408 454/329/317 486/329/318 487/329/409
f 469/329/323 468/329/319 500/329/320 501/329/324
f 456/329/325 455/329/408 487/329/409 488/329/326
f 470/329/327 469/329/323 501/329/324 502/329/328
f 482/329/419 481/329/419 512/329/419 511/329/419 510/329/419 509/329/419 508/329/419 507/329/419 506/329/419 505/329/419 504/329/419 503/329/419 502/329/419 501/329/419 500/329/419 499/329/419 498/329/419 497/329/419 496/329/419 495/329/419 494/329/419 493/329/419 492/329/419 491/329/419 490/329/419 489/329/419 488/329/419 487/329/419 486/329/419 485/329/419 484/329/419 483/329/419
f 322/329/420 323/329/420 324/329/420 325/329/420 326/329/420 327/329/420 328/329/420 329/329/420 330/329/420 331/329/420 332/329/420 333/329/420 334/329/420 335/329/420 336/329/420 337/329/420 338/329/420 339/329/420 340/329/420 341/329/420 342/329/420 343/329/420 344/329/420 345/329/420 346/329/420 347/329/420 348/329/420 349/329/420 350/329/420 351/329/420 352/329/420 321/329/420
