# Blender 4.2.19 LTS
# www.blender.org
mtllib RTC_NikolaevVA_bottom.mtl
o bottom
v 0.895567 2.493551 -0.114852
v 0.766242 2.480814 -0.114852
v 0.641886 2.443091 -0.114852
v 0.527279 2.381832 -0.114852
v 0.426825 2.299392 -0.114852
v 0.344385 2.198938 -0.114852
v 0.283126 2.084331 -0.114852
v 0.245403 1.959975 -0.114852
v 0.232665 1.830649 -0.114852
v -0.428606 1.246197 -0.114852
v -0.390883 1.121842 -0.114852
v -0.329624 1.007235 -0.114852
v -0.247184 0.906781 -0.114852
v -0.146730 0.824340 -0.114852
v -0.032123 0.763082 -0.114852
v 0.092233 0.725359 -0.114852
v 0.580953 0.764766 -0.114852
v 0.710279 0.777503 -0.114852
v 0.834635 0.815226 -0.114852
v 0.949242 0.876485 -0.114852
v 1.049695 0.958925 -0.114852
v 1.132136 1.059379 -0.114852
v 1.508009 1.576968 -0.114852
v 1.545732 1.701324 -0.114852
v 1.558470 1.830649 -0.114852
v 1.545732 1.959975 -0.114852
v 1.508009 2.084331 -0.114852
v 1.446750 2.198938 -0.114852
v 1.364310 2.299392 -0.114852
v 1.263856 2.381832 -0.114852
v 1.149249 2.443091 -0.114852
v 1.024893 2.480814 -0.114852
v 0.895567 2.493551 0.109231
v 0.766242 2.480814 0.109231
v 0.641886 2.443091 0.109231
v 0.527279 2.381832 0.109231
v 0.426825 2.299392 0.109231
v 0.344385 2.198938 0.109231
v 0.283126 2.084331 0.109231
v 0.245403 1.959975 0.109231
v 0.232665 1.830649 0.109231
v -0.428606 1.246197 0.109231
v -0.390883 1.121841 0.109231
v -0.329624 1.007235 0.109231
v -0.247184 0.906781 0.109231
v -0.146730 0.824340 0.109231
v -0.032123 0.763082 0.109231
v 0.092233 0.725359 0.109231
v 0.580953 0.764766 0.109231
v 0.710279 0.777503 0.109231
v 0.834635 0.815226 0.109231
v 0.949242 0.876485 0.109231
v 1.049695 0.958925 0.109231
v 1.132136 1.059379 0.109231
v 1.508009 1.576968 0.109231
v 1.545732 1.701324 0.109231
v 1.558470 1.830649 0.109231
v 1.545732 1.959975 0.109231
v 1.508009 2.084331 0.109231
v 1.446750 2.198938 0.109231
v 1.364310 2.299392 0.109231
v 1.263856 2.381832 0.109231
v 1.149249 2.443091 0.109231
v 1.024893 2.480814 0.109231
v 0.118639 1.602504 -0.114852
v 0.118639 1.602504 0.109231
v -1.035620 0.788871 0.612311
v -1.035620 1.267464 0.612311
v -1.035620 0.788871 -0.612310
v -1.035620 1.267464 -0.612311
v -0.002679 0.788871 0.612311
v -0.002679 1.267464 0.612311
v -0.002679 0.788871 -0.612310
v -0.002679 1.267464 -0.612311
v -0.728251 0.788871 -0.612310
v -0.728251 1.267464 -0.612311
v -0.728251 0.788871 0.612311
v -0.728251 1.267464 0.612311
v -1.035620 1.330189 0.612311
v -1.035620 1.330189 -0.612311
v -0.728251 1.330189 0.612311
v -0.728251 1.330189 -0.612311
v 0.920532 2.192139 -0.094504
v 0.869076 2.187071 -0.094504
v 0.819598 2.172062 -0.094504
v 0.773999 2.147689 -0.094504
v 0.734031 2.114888 -0.094504
v 0.701230 2.074920 -0.094504
v 0.676857 2.029320 -0.094504
v 0.661848 1.979842 -0.094504
v 0.656780 1.928387 -0.094504
v 0.661848 1.876931 -0.094504
v 0.676857 1.827453 -0.094504
v 0.701230 1.781854 -0.094504
v 0.734031 1.741886 -0.094504
v 0.773999 1.709085 -0.094504
v 0.819598 1.684712 -0.094504
v 0.869076 1.669703 -0.094504
v 0.920532 1.664635 -0.094504
v 0.971987 1.669703 -0.094504
v 1.021465 1.684712 -0.094504
v 1.067065 1.709085 -0.094504
v 1.107033 1.741886 -0.094504
v 1.139833 1.781854 -0.094504
v 1.164207 1.827453 -0.094504
v 1.179216 1.876931 -0.094504
v 1.184284 1.928387 -0.094504
v 1.179216 1.979842 -0.094504
v 1.164207 2.029320 -0.094504
v 1.139833 2.074920 -0.094504
v 1.107033 2.114888 -0.094504
v 1.067065 2.147689 -0.094504
v 1.021465 2.172062 -0.094504
v 0.971987 2.187071 -0.094504
v 0.920532 2.192139 -0.936755
v 0.869076 2.187071 -0.936755
v 0.819598 2.172062 -0.936755
v 0.773999 2.147689 -0.936755
v 0.734031 2.114888 -0.936755
v 0.701230 2.074920 -0.936755
v 0.676857 2.029320 -0.936755
v 0.661848 1.979842 -0.936755
v 0.656780 1.928387 -0.936755
v 0.661848 1.876931 -0.936755
v 0.676857 1.827453 -0.936755
v 0.701230 1.781854 -0.936755
v 0.734031 1.741886 -0.936755
v 0.773999 1.709085 -0.936755
v 0.819598 1.684712 -0.936755
v 0.869076 1.669703 -0.936755
v 0.920532 1.664635 -0.936755
v 0.971987 1.669703 -0.936755
v 1.021465 1.684712 -0.936755
v 1.067065 1.709085 -0.936755
v 1.107033 1.741886 -0.936755
v 1.139833 1.781854 -0.936755
v 1.164207 1.827453 -0.936755
v 1.179216 1.876931 -0.936755
v 1.184284 1.928387 -0.936755
v 1.179216 1.979842 -0.936755
v 1.164207 2.029320 -0.936755
v 1.139833 2.074920 -0.936755
v 1.107033 2.114888 -0.936755
v 1.067065 2.147689 -0.936755
v 1.021465 2.172062 -0.936755
v 0.971987 2.187071 -0.936755
v 0.000000 0.546349 -0.817826
v -0.159550 0.546349 -0.802111
v -0.317803 0.546349 -0.765337
v -0.461022 0.546349 -0.688785
v -0.586554 0.546349 -0.585763
v -0.679997 0.546349 -0.454360
v -0.755572 0.546349 -0.312968
v -0.802111 0.546349 -0.159550
v -0.817826 0.546349 0.000000
v -0.802111 0.546349 0.159550
v -0.755572 0.546349 0.312968
v -0.679997 0.546349 0.454360
v -0.586554 0.546349 0.585763
v -0.461022 0.546349 0.688785
v -0.317803 0.546349 0.765337
v -0.159550 0.546349 0.802111
v 0.000000 0.546349 0.817826
v 0.159550 0.546349 0.802111
v 0.312968 0.546349 0.755572
v 0.459441 0.546349 0.688785
v 0.584973 0.546349 0.585763
v 0.687994 0.546349 0.460231
v 0.755572 0.546349 0.312968
v 0.802111 0.546349 0.159550
v 0.817826 0.546349 0.000000
v 0.802111 0.546349 -0.159550
v 0.755572 0.546349 -0.312968
v 0.687994 0.546349 -0.460231
v 0.584973 0.546349 -0.585763
v 0.459441 0.546349 -0.688785
v 0.312968 0.546349 -0.755572
v 0.159550 0.546349 -0.802111
v 0.000000 0.691940 -0.817826
v -0.159550 0.691940 -0.802111
v -0.317803 0.691940 -0.765337
v -0.461022 0.691940 -0.688785
v -0.586554 0.691940 -0.585763
v -0.679997 0.691940 -0.454360
v -0.755572 0.691940 -0.312968
v -0.802111 0.691940 -0.159550
v -0.817826 0.691940 0.000000
v -0.802111 0.691940 0.159550
v -0.755572 0.691940 0.312968
v -0.679997 0.691940 0.454360
v -0.586554 0.691940 0.585763
v -0.461022 0.691940 0.688785
v -0.317803 0.691940 0.765337
v -0.159550 0.691940 0.802111
v 0.000000 0.691940 0.817826
v 0.159550 0.691940 0.802111
v 0.312968 0.691940 0.755572
v 0.459441 0.691940 0.688785
v 0.584973 0.691940 0.585763
v 0.687994 0.691940 0.460231
v 0.755572 0.691940 0.312968
v 0.802111 0.691940 0.159550
v 0.817826 0.691940 0.000000
v 0.802111 0.691940 -0.159550
v 0.755572 0.691940 -0.312968
v 0.687994 0.691940 -0.460231
v 0.584973 0.691940 -0.585763
v 0.459441 0.691940 -0.688785
v 0.312968 0.691940 -0.755572
v 0.159550 0.691940 -0.802111
v 0.000000 0.691940 -0.658937
v -0.128552 0.691940 -0.646275
v -0.256060 0.691940 -0.616645
v -0.371453 0.691940 -0.554966
v -0.472597 0.691940 -0.471960
v -0.547886 0.691940 -0.366086
v -0.608778 0.691940 -0.252164
v -0.646275 0.691940 -0.128552
v -0.658937 0.691940 0.000000
v -0.646275 0.691940 0.128552
v -0.608778 0.691940 0.252164
v -0.547886 0.691940 0.366085
v -0.472597 0.691940 0.471960
v -0.371453 0.691940 0.554966
v -0.256060 0.691940 0.616645
v -0.128552 0.691940 0.646275
v 0.000000 0.691940 0.658937
v 0.128552 0.691940 0.646275
v 0.252164 0.691940 0.608778
v 0.370180 0.691940 0.554966
v 0.471323 0.691940 0.471960
v 0.554329 0.691940 0.370816
v 0.608778 0.691940 0.252164
v 0.646275 0.691940 0.128552
v 0.658937 0.691940 0.000000
v 0.646275 0.691940 -0.128552
v 0.608778 0.691940 -0.252164
v 0.554329 0.691940 -0.370817
v 0.471323 0.691940 -0.471960
v 0.370180 0.691940 -0.554966
v 0.252164 0.691940 -0.608778
v 0.128552 0.691940 -0.646275
v 0.000000 0.790284 -0.658937
v -0.128552 0.790284 -0.646275
v -0.256060 0.790284 -0.616645
v -0.371453 0.790284 -0.554966
v -0.472597 0.790284 -0.471960
v -0.547886 0.790284 -0.366085
v -0.608778 0.790284 -0.252164
v -0.646275 0.790284 -0.128552
v -0.658937 0.790284 0.000000
v -0.646275 0.790284 0.128552
v -0.608778 0.790284 0.252164
v -0.547886 0.790284 0.366086
v -0.472597 0.790284 0.471960
v -0.371453 0.790284 0.554966
v -0.256060 0.790284 0.616645
v -0.128552 0.790284 0.646275
v 0.000000 0.790284 0.658937
v 0.128552 0.790284 0.646275
v 0.252164 0.790284 0.608778
v 0.370180 0.790284 0.554966
v 0.471323 0.790284 0.471960
v 0.554329 0.790284 0.370817
v 0.608778 0.790284 0.252164
v 0.646275 0.790284 0.128552
v 0.658937 0.790284 0.000000
v 0.646275 0.790284 -0.128552
v 0.608778 0.790284 -0.252164
v 0.554329 0.790284 -0.370816
v 0.471323 0.790284 -0.471960
v 0.370180 0.790284 -0.554966
v 0.252164 0.790284 -0.608778
v 0.128552 0.790284 -0.646275
v 0.000000 0.790284 -0.000000
vn 0.7914 -0.6113 -0.0000
vn 0.8955 -0.4451 -0.0000
vn -0.5456 0.8380 -0.0000
vn 0.9808 -0.1951 -0.0000
vn 1.0000 -0.0000 -0.0000
vn 0.9808 0.1951 -0.0000
vn 0.9239 0.3827 -0.0000
vn 0.8315 0.5556 -0.0000
vn -0.0000 1.0000 -0.0000
vn -0.1951 0.9808 -0.0000
vn 0.7071 0.7071 -0.0000
vn -0.3827 0.9239 -0.0000
vn 0.5556 0.8315 -0.0000
vn -0.5556 0.8315 -0.0000
vn 0.3827 0.9239 -0.0000
vn 0.0980 -0.9952 -0.0000
vn 0.1951 -0.9808 -0.0000
vn -0.7071 0.7071 -0.0000
vn 0.1951 0.9808 -0.0000
vn 0.3827 -0.9239 -0.0000
vn -0.8315 0.5556 -0.0000
vn 0.5556 -0.8315 -0.0000
vn -0.9239 0.3827 -0.0000
vn 0.7071 -0.7071 -0.0000
vn -0.9808 0.1951 -0.0000
vn -0.9608 0.2772 -0.0000
vn -0.8945 0.4471 -0.0000
vn -0.0000 -0.0000 1.0000
vn -0.0000 -0.0000 -1.0000
vn -1.0000 -0.0000 -0.0000
vn -0.0000 -1.0000 -0.0000
vn 0.8315 -0.5556 -0.0000
vn 0.9239 -0.3827 -0.0000
vn -0.9808 -0.1951 -0.0000
vn -0.9239 -0.3827 -0.0000
vn -0.8315 -0.5556 -0.0000
vn -0.7071 -0.7071 -0.0000
vn -0.5556 -0.8315 -0.0000
vn -0.3827 -0.9239 -0.0000
vn -0.1951 -0.9808 -0.0000
vn 0.8502 -0.0000 0.5265
vn 0.7311 -0.0000 0.6823
vn -0.1951 -0.0000 0.9808
vn -0.5291 -0.0000 -0.8486
vn -0.3534 -0.0000 -0.9355
vn 0.9239 -0.0000 0.3827
vn -0.7071 -0.0000 -0.7071
vn 0.9808 -0.0000 0.1951
vn -0.8479 -0.0000 -0.5301
vn -0.9351 -0.0000 -0.3545
vn 0.9808 -0.0000 -0.1951
vn -0.9808 -0.0000 -0.1951
vn 0.9239 -0.0000 -0.3827
vn 0.8502 -0.0000 -0.5265
vn -0.9808 -0.0000 0.1951
vn 0.7311 -0.0000 -0.6823
vn -0.9351 -0.0000 0.3545
vn 0.5556 -0.0000 -0.8315
vn -0.8479 -0.0000 0.5301
vn 0.3519 -0.0000 -0.9360
vn 0.1625 -0.0000 0.9867
vn -0.7071 -0.0000 0.7071
vn 0.1625 -0.0000 -0.9867
vn 0.3519 -0.0000 0.9360
vn -0.5291 -0.0000 0.8486
vn 0.5556 -0.0000 0.8315
vn -0.3534 -0.0000 0.9355
vn -0.1951 -0.0000 -0.9808
vt 0.000000 0.000000
vt 0.375000 0.000000
vt 0.625000 0.000000
vt 0.625000 0.250000
vt 0.375000 0.250000
vt 0.375000 0.324392
vt 0.625000 0.324392
vt 0.625000 0.500000
vt 0.375000 0.500000
vt 0.625000 0.750000
vt 0.375000 0.750000
vt 0.375000 0.925608
vt 0.625000 0.925608
vt 0.625000 1.000000
vt 0.375000 1.000000
vt 0.199392 0.500000
vt 0.199392 0.750000
vt 0.800608 0.500000
vt 0.800608 0.750000
vt 0.875000 0.500000
vt 0.875000 0.750000
s 1
usemtl Material.001
f 22/1/1 23/1/2 55/1/2 54/1/1
f 65/1/3 10/1/3 42/1/3 66/1/3
f 23/1/2 24/1/4 56/1/4 55/1/2
f 24/1/4 25/1/5 57/1/5 56/1/4
f 25/1/5 26/1/6 58/1/6 57/1/5
f 26/1/6 27/1/7 59/1/7 58/1/6
f 27/1/7 28/1/8 60/1/8 59/1/7
f 1/1/9 2/1/10 34/1/10 33/1/9
f 28/1/8 29/1/11 61/1/11 60/1/8
f 2/1/10 3/1/12 35/1/12 34/1/10
f 29/1/11 30/1/13 62/1/13 61/1/11
f 3/1/12 4/1/14 36/1/14 35/1/12
f 30/1/13 31/1/15 63/1/15 62/1/13
f 17/1/16 18/1/17 50/1/17 49/1/16
f 4/1/14 5/1/18 37/1/18 36/1/14
f 31/1/15 32/1/19 64/1/19 63/1/15
f 18/1/17 19/1/20 51/1/20 50/1/17
f 5/1/18 6/1/21 38/1/21 37/1/18
f 32/1/19 1/1/9 33/1/9 64/1/19
f 19/1/20 20/1/22 52/1/22 51/1/20
f 6/1/21 7/1/23 39/1/23 38/1/21
f 20/1/22 21/1/24 53/1/24 52/1/22
f 7/1/23 8/1/25 40/1/25 39/1/23
f 21/1/24 22/1/1 54/1/1 53/1/24
f 8/1/25 9/1/26 41/1/26 40/1/25
f 9/1/26 65/1/27 66/1/27 41/1/26
f 34/1/28 35/1/28 36/1/28 37/1/28 38/1/28 39/1/28 40/1/28 41/1/28 66/1/28 42/1/28 43/1/28 44/1/28 45/1/28 46/1/28 47/1/28 48/1/28 49/1/28 50/1/28 51/1/28 52/1/28 53/1/28 54/1/28 55/1/28 56/1/28 57/1/28 58/1/28 59/1/28 60/1/28 61/1/28 62/1/28 63/1/28 64/1/28 33/1/28
f 2/1/29 1/1/29 32/1/29 31/1/29 30/1/29 29/1/29 28/1/29 27/1/29 26/1/29 25/1/29 24/1/29 23/1/29 22/1/29 21/1/29 20/1/29 19/1/29 18/1/29 17/1/29 16/1/29 15/1/29 14/1/29 13/1/29 12/1/29 11/1/29 10/1/29 65/1/29 9/1/29 8/1/29 7/1/29 6/1/29 5/1/29 4/1/29 3/1/29
f 67/2/30 68/3/30 70/4/30 69/5/30
f 75/6/29 76/7/29 74/8/29 73/9/29
f 73/9/5 74/8/5 72/10/5 71/11/5
f 77/12/28 78/13/28 68/14/28 67/15/28
f 75/16/31 73/9/31 71/11/31 77/17/31
f 70/4/30 68/3/30 79/3/30 80/4/30
f 74/8/9 76/18/9 78/19/9 72/10/9
f 71/11/28 72/10/28 78/13/28 77/12/28
f 69/5/29 70/4/29 76/7/29 75/6/29
f 82/18/9 80/20/9 79/21/9 81/19/9
f 76/7/29 70/4/29 80/4/29 82/7/29
f 68/14/28 78/13/28 81/13/28 79/14/28
f 78/19/5 76/18/5 82/18/5 81/19/5
f 86/1/14 85/1/12 117/1/12 118/1/14
f 113/1/15 112/1/13 144/1/13 145/1/15
f 100/1/17 99/1/31 131/1/31 132/1/17
f 87/1/18 86/1/14 118/1/14 119/1/18
f 114/1/19 113/1/15 145/1/15 146/1/19
f 101/1/20 100/1/17 132/1/17 133/1/20
f 88/1/21 87/1/18 119/1/18 120/1/21
f 83/1/9 114/1/19 146/1/19 115/1/9
f 102/1/22 101/1/20 133/1/20 134/1/22
f 89/1/23 88/1/21 120/1/21 121/1/23
f 103/1/24 102/1/22 134/1/22 135/1/24
f 90/1/25 89/1/23 121/1/23 122/1/25
f 104/1/32 103/1/24 135/1/24 136/1/32
f 91/1/30 90/1/25 122/1/25 123/1/30
f 105/1/33 104/1/32 136/1/32 137/1/33
f 92/1/34 91/1/30 123/1/30 124/1/34
f 106/1/4 105/1/33 137/1/33 138/1/4
f 93/1/35 92/1/34 124/1/34 125/1/35
f 107/1/5 106/1/4 138/1/4 139/1/5
f 94/1/36 93/1/35 125/1/35 126/1/36
f 108/1/6 107/1/5 139/1/5 140/1/6
f 95/1/37 94/1/36 126/1/36 127/1/37
f 109/1/7 108/1/6 140/1/6 141/1/7
f 96/1/38 95/1/37 127/1/37 128/1/38
f 110/1/8 109/1/7 141/1/7 142/1/8
f 97/1/39 96/1/38 128/1/38 129/1/39
f 84/1/10 83/1/9 115/1/9 116/1/10
f 111/1/11 110/1/8 142/1/8 143/1/11
f 98/1/40 97/1/39 129/1/39 130/1/40
f 85/1/12 84/1/10 116/1/10 117/1/12
f 112/1/13 111/1/11 143/1/11 144/1/13
f 99/1/31 98/1/40 130/1/40 131/1/31
f 116/1/29 115/1/29 146/1/29 145/1/29 144/1/29 143/1/29 142/1/29 141/1/29 140/1/29 139/1/29 138/1/29 137/1/29 136/1/29 135/1/29 134/1/29 133/1/29 132/1/29 131/1/29 130/1/29 129/1/29 128/1/29 127/1/29 126/1/29 125/1/29 124/1/29 123/1/29 122/1/29 121/1/29 120/1/29 119/1/29 118/1/29 117/1/29
f 152/1/41 151/1/42 183/1/42 184/1/41
f 147/1/28 178/1/43 210/1/43 179/1/28
f 166/1/44 165/1/45 197/1/45 198/1/44
f 153/1/46 152/1/41 184/1/41 185/1/46
f 167/1/47 166/1/44 198/1/44 199/1/47
f 154/1/48 153/1/46 185/1/46 186/1/48
f 168/1/49 167/1/47 199/1/47 200/1/49
f 155/1/5 154/1/48 186/1/48 187/1/5
f 169/1/50 168/1/49 200/1/49 201/1/50
f 156/1/51 155/1/5 187/1/5 188/1/51
f 170/1/52 169/1/50 201/1/50 202/1/52
f 157/1/53 156/1/51 188/1/51 189/1/53
f 171/1/30 170/1/52 202/1/52 203/1/30
f 158/1/54 157/1/53 189/1/53 190/1/54
f 172/1/55 171/1/30 203/1/30 204/1/55
f 159/1/56 158/1/54 190/1/54 191/1/56
f 173/1/57 172/1/55 204/1/55 205/1/57
f 160/1/58 159/1/56 191/1/56 192/1/58
f 174/1/59 173/1/57 205/1/57 206/1/59
f 161/1/60 160/1/58 192/1/58 193/1/60
f 148/1/61 147/1/28 179/1/28 180/1/61
f 175/1/62 174/1/59 206/1/59 207/1/62
f 162/1/63 161/1/60 193/1/60 194/1/63
f 149/1/64 148/1/61 180/1/61 181/1/64
f 176/1/65 175/1/62 207/1/62 208/1/65
f 163/1/29 162/1/63 194/1/63 195/1/29
f 150/1/66 149/1/64 181/1/64 182/1/66
f 177/1/67 176/1/65 208/1/65 209/1/67
f 164/1/68 163/1/29 195/1/29 196/1/68
f 151/1/42 150/1/66 182/1/66 183/1/42
f 178/1/43 177/1/67 209/1/67 210/1/43
f 165/1/45 164/1/68 196/1/68 197/1/45
f 187/1/31 186/1/31 218/1/31 219/1/31
f 201/1/31 200/1/31 232/1/31 233/1/31
f 188/1/31 187/1/31 219/1/31 220/1/31
f 202/1/31 201/1/31 233/1/31 234/1/31
f 189/1/31 188/1/31 220/1/31 221/1/31
f 203/1/31 202/1/31 234/1/31 235/1/31
f 190/1/31 189/1/31 221/1/31 222/1/31
f 204/1/31 203/1/31 235/1/31 236/1/31
f 191/1/31 190/1/31 222/1/31 223/1/31
f 205/1/31 204/1/31 236/1/31 237/1/31
f 192/1/31 191/1/31 223/1/31 224/1/31
f 206/1/31 205/1/31 237/1/31 238/1/31
f 193/1/31 192/1/31 224/1/31 225/1/31
f 180/1/31 179/1/31 211/1/31 212/1/31
f 207/1/31 206/1/31 238/1/31 239/1/31
f 194/1/31 193/1/31 225/1/31 226/1/31
f 181/1/31 180/1/31 212/1/31 213/1/31
f 208/1/31 207/1/31 239/1/31 240/1/31
f 195/1/31 194/1/31 226/1/31 227/1/31
f 182/1/31 181/1/31 213/1/31 214/1/31
f 209/1/31 208/1/31 240/1/31 241/1/31
f 196/1/31 195/1/31 227/1/31 228/1/31
f 183/1/31 182/1/31 214/1/31 215/1/31
f 210/1/31 209/1/31 241/1/31 242/1/31
f 197/1/31 196/1/31 228/1/31 229/1/31
f 184/1/31 183/1/31 215/1/31 216/1/31
f 179/1/31 210/1/31 242/1/31 211/1/31
f 198/1/31 197/1/31 229/1/31 230/1/31
f 185/1/31 184/1/31 216/1/31 217/1/31
f 199/1/31 198/1/31 230/1/31 231/1/31
f 186/1/31 185/1/31 217/1/31 218/1/31
f 200/1/31 199/1/31 231/1/31 232/1/31
f 236/1/55 235/1/30 267/1/30 268/1/55
f 223/1/56 222/1/54 254/1/54 255/1/56
f 237/1/57 236/1/55 268/1/55 269/1/57
f 224/1/58 223/1/56 255/1/56 256/1/58
f 238/1/59 237/1/57 269/1/57 270/1/59
f 225/1/60 224/1/58 256/1/58 257/1/60
f 212/1/61 211/1/28 243/1/28 244/1/61
f 239/1/62 238/1/59 270/1/59 271/1/62
f 226/1/63 225/1/60 257/1/60 258/1/63
f 213/1/64 212/1/61 244/1/61 245/1/64
f 240/1/65 239/1/62 271/1/62 272/1/65
f 227/1/29 226/1/63 258/1/63 259/1/29
f 214/1/66 213/1/64 245/1/64 246/1/66
f 241/1/67 240/1/65 272/1/65 273/1/67
f 228/1/68 227/1/29 259/1/29 260/1/68
f 215/1/42 214/1/66 246/1/66 247/1/42
f 242/1/43 241/1/67 273/1/67 274/1/43
f 229/1/45 228/1/68 260/1/68 261/1/45
f 216/1/41 215/1/42 247/1/42 248/1/41
f 211/1/28 242/1/43 274/1/43 243/1/28
f 230/1/44 229/1/45 261/1/45 262/1/44
f 217/1/46 216/1/41 248/1/41 249/1/46
f 231/1/47 230/1/44 262/1/44 263/1/47
f 218/1/48 217/1/46 249/1/46 250/1/48
f 232/1/49 231/1/47 263/1/47 264/1/49
f 219/1/5 218/1/48 250/1/48 251/1/5
f 233/1/50 232/1/49 264/1/49 265/1/50
f 220/1/51 219/1/5 251/1/5 252/1/51
f 234/1/52 233/1/50 265/1/50 266/1/52
f 221/1/53 220/1/51 252/1/51 253/1/53
f 235/1/30 234/1/52 266/1/52 267/1/30
f 222/1/54 221/1/53 253/1/53 254/1/54
f 262/1/31 261/1/31 275/1/31
f 263/1/31 262/1/31 275/1/31
f 264/1/31 263/1/31 275/1/31
f 265/1/31 264/1/31 275/1/31
f 266/1/31 265/1/31 275/1/31
f 267/1/31 266/1/31 275/1/31
f 268/1/31 267/1/31 275/1/31
f 269/1/31 268/1/31 275/1/31
f 270/1/31 269/1/31 275/1/31
f 244/1/31 243/1/31 275/1/31
f 271/1/31 270/1/31 275/1/31
f 258/1/31 257/1/31 275/1/31
f 245/1/31 244/1/31 275/1/31
f 272/1/31 271/1/31 275/1/31
f 259/1/31 258/1/31 275/1/31
f 273/1/31 272/1/31 275/1/31
f 260/1/31 259/1/31 275/1/31
f 274/1/31 273/1/31 275/1/31
f 261/1/31 260/1/31 275/1/31
f 243/1/31 274/1/31 275/1/31
f 148/1/9 149/1/9 150/1/9 151/1/9 152/1/9 153/1/9 154/1/9 155/1/9 156/1/9 157/1/9 158/1/9 159/1/9 160/1/9 161/1/9 162/1/9 163/1/9 164/1/9 165/1/9 166/1/9 167/1/9 168/1/9 169/1/9 170/1/9 171/1/9 172/1/9 173/1/9 174/1/9 175/1/9 176/1/9 177/1/9 178/1/9 147/1/9
f 67/15/31 69/5/31 75/16/31 77/12/31
