# Blender 4.2.19 LTS
# www.blender.org
mtllib RTC_NikolaevVA_middle.mtl
o middle
v 0.896840 2.403213 0.125791
v 0.787519 2.392446 0.125791
v 0.682398 2.360558 0.125791
v 0.585519 2.308775 0.125791
v 0.500604 2.239087 0.125791
v 0.430915 2.154171 0.125791
v 0.379132 2.057292 0.125791
v 0.347244 1.952172 0.125791
v 0.336477 1.842851 0.125791
v 0.347244 1.733529 0.125791
v 0.379132 1.628409 0.125791
v 0.430915 1.531530 0.125791
v 0.500604 1.446615 0.125791
v 0.585519 1.376926 0.125791
v 0.682398 1.325143 0.125791
v 0.787519 1.293255 0.125791
v 0.896840 1.282488 0.125791
v 1.006161 1.293255 0.125791
v 1.111281 1.325143 0.125791
v 1.208161 1.376926 0.125791
v 1.293076 1.446615 0.125791
v 1.362764 1.531530 0.125791
v 1.414547 1.628409 0.125791
v 1.446435 1.733529 0.125791
v 1.457202 1.842851 0.125791
v 1.446435 1.952172 0.125791
v 1.414547 2.057292 0.125791
v 1.362764 2.154171 0.125791
v 1.293076 2.239087 0.125791
v 1.208161 2.308775 0.125791
v 1.111281 2.360558 0.125791
v 1.006161 2.392446 0.125791
v 0.896840 2.403213 0.248847
v 0.787519 2.392446 0.248847
v 0.682398 2.360558 0.248847
v 0.585519 2.308775 0.248847
v 0.500604 2.239087 0.248847
v 0.430915 2.154171 0.248847
v 0.379132 2.057292 0.248847
v 0.347244 1.952172 0.248847
v 0.336477 1.842851 0.248847
v 0.347244 1.733529 0.248847
v 0.379132 1.628409 0.248847
v 0.430915 1.531530 0.248847
v 0.500604 1.446615 0.248847
v 0.585519 1.376926 0.248847
v 0.682398 1.325143 0.248847
v 0.787519 1.293255 0.248847
v 0.896840 1.282488 0.248847
v 1.006161 1.293255 0.248847
v 1.111281 1.325143 0.248847
v 1.208161 1.376926 0.248847
v 1.293076 1.446615 0.248847
v 1.362764 1.531530 0.248847
v 1.414547 1.628409 0.248847
v 1.446435 1.733529 0.248847
v 1.457202 1.842851 0.248847
v 1.446435 1.952172 0.248847
v 1.414547 2.057292 0.248847
v 1.362764 2.154171 0.248847
v 1.293076 2.239087 0.248847
v 1.208161 2.308775 0.248847
v 1.111281 2.360558 0.248847
v 1.006161 2.392446 0.248847
v 0.896840 2.338235 0.248847
v 0.800195 2.328716 0.248847
v 0.707264 2.300526 0.248847
v 0.621619 2.254748 0.248847
v 0.546550 2.193140 0.248847
v 0.484943 2.118071 0.248847
v 0.439164 2.032426 0.248847
v 0.410974 1.939495 0.248847
v 0.401456 1.842851 0.248847
v 0.410974 1.746206 0.248847
v 0.439164 1.653275 0.248847
v 0.484943 1.567630 0.248847
v 0.546550 1.492561 0.248847
v 0.621619 1.430954 0.248847
v 0.707264 1.385175 0.248847
v 0.800195 1.356985 0.248847
v 0.896840 1.347466 0.248847
v 0.993484 1.356985 0.248847
v 1.086415 1.385175 0.248847
v 1.172060 1.430954 0.248847
v 1.247129 1.492561 0.248847
v 1.308737 1.567630 0.248847
v 1.354515 1.653275 0.248847
v 1.382705 1.746206 0.248847
v 1.392224 1.842851 0.248847
v 1.382705 1.939495 0.248847
v 1.354515 2.032426 0.248847
v 1.308737 2.118071 0.248847
v 1.247129 2.193140 0.248847
v 1.172060 2.254748 0.248847
v 1.086415 2.300526 0.248847
v 0.993484 2.328716 0.248847
v 0.896840 2.338235 0.344557
v 0.800195 2.328716 0.344557
v 0.707264 2.300526 0.344557
v 0.621619 2.254748 0.344557
v 0.546550 2.193140 0.344557
v 0.484943 2.118071 0.344557
v 0.439164 2.032426 0.344557
v 0.410974 1.939495 0.344557
v 0.401456 1.842851 0.344557
v 0.410974 1.746206 0.344557
v 0.439164 1.653275 0.344557
v 0.484943 1.567630 0.344557
v 0.546550 1.492561 0.344557
v 0.621619 1.430954 0.344557
v 0.707264 1.385175 0.344557
v 0.800195 1.356985 0.344557
v 0.896840 1.347467 0.344557
v 0.993484 1.356985 0.344557
v 1.086415 1.385175 0.344557
v 1.172060 1.430954 0.344557
v 1.247129 1.492561 0.344557
v 1.308737 1.567630 0.344557
v 1.354515 1.653275 0.344557
v 1.382705 1.746206 0.344557
v 1.392224 1.842851 0.344557
v 1.382705 1.939495 0.344557
v 1.354515 2.032426 0.344557
v 1.308737 2.118071 0.344557
v 1.247129 2.193140 0.344557
v 1.172060 2.254748 0.344557
v 1.086415 2.300526 0.344557
v 0.993484 2.328716 0.344557
v 0.896840 2.230471 0.344557
v 0.821219 2.223023 0.344557
v 0.748504 2.200965 0.344557
v 0.681489 2.165145 0.344557
v 0.622751 2.116940 0.344557
v 0.574545 2.058201 0.344557
v 0.538725 1.991187 0.344557
v 0.516667 1.918472 0.344557
v 0.509219 1.842851 0.344557
v 0.516667 1.767230 0.344557
v 0.538725 1.694515 0.344557
v 0.574545 1.627500 0.344557
v 0.622751 1.568762 0.344557
v 0.681489 1.520556 0.344557
v 0.748504 1.484736 0.344557
v 0.821219 1.462678 0.344557
v 0.896840 1.455230 0.344557
v 0.972461 1.462678 0.344557
v 1.045176 1.484736 0.344557
v 1.112190 1.520556 0.344557
v 1.170929 1.568762 0.344557
v 1.219135 1.627500 0.344557
v 1.254955 1.694515 0.344557
v 1.277012 1.767230 0.344557
v 1.284460 1.842851 0.344557
v 1.277012 1.918472 0.344557
v 1.254955 1.991187 0.344557
v 1.219135 2.058201 0.344557
v 1.170929 2.116940 0.344557
v 1.112190 2.165145 0.344557
v 1.045176 2.200965 0.344557
v 0.972461 2.223023 0.344557
v -0.964333 3.337857 0.645361
v -1.011249 3.333236 0.645361
v -1.056362 3.319551 0.645361
v -1.097939 3.297328 0.645361
v -1.134381 3.267420 0.645361
v -1.164288 3.230978 0.645361
v -1.186512 3.189401 0.645361
v -1.200197 3.144288 0.645361
v -1.204818 3.097372 0.645361
v -1.200197 3.050456 0.645361
v -1.186512 3.005342 0.645361
v -1.164288 2.963765 0.645361
v -1.134381 2.927323 0.645361
v -1.097939 2.897416 0.645361
v -1.056362 2.875193 0.645361
v 0.821219 1.462678 0.645361
v 0.896840 1.455230 0.645361
v 0.972461 1.462678 0.645361
v 1.045176 1.484736 0.645361
v 1.112190 1.520556 0.645361
v 1.170929 1.568762 0.645361
v 1.219135 1.627500 0.645361
v 1.254955 1.694515 0.645361
v 1.277012 1.767230 0.645361
v 1.284460 1.842851 0.645361
v 1.277012 1.918472 0.645361
v 1.254955 1.991187 0.645361
v 1.219135 2.058201 0.645361
v 1.170929 2.116940 0.645361
v 1.112190 2.165145 0.645361
v 1.045176 2.200965 0.645361
v -0.917416 3.333236 0.645361
v 0.896840 1.455230 0.363192
v 0.972461 1.462678 0.363192
v -1.097939 3.297328 0.363192
v -1.134381 3.267420 0.363192
v 1.045176 2.200965 0.363192
v -0.917416 3.333236 0.363192
v 1.045176 1.484736 0.363192
v -1.164288 3.230978 0.363192
v -0.964333 3.337857 0.363192
v 1.112190 1.520556 0.363192
v -1.186512 3.189401 0.363192
v 1.170929 1.568762 0.363192
v -1.200197 3.144288 0.363192
v 1.219135 1.627500 0.363192
v -1.204818 3.097372 0.363192
v 1.254955 1.694515 0.363192
v -1.200197 3.050456 0.363192
v 1.277012 1.767230 0.363192
v -1.186512 3.005342 0.363192
v 1.284460 1.842851 0.363192
v -1.164288 2.963765 0.363192
v 1.277012 1.918472 0.363192
v -1.134381 2.927323 0.363192
v 1.254955 1.991187 0.363192
v -1.097939 2.897416 0.363192
v 1.219135 2.058201 0.363192
v -1.056362 2.875193 0.363192
v -1.011249 3.333236 0.363192
v 1.170929 2.116940 0.363192
v 0.821219 1.462678 0.363192
v -1.056362 3.319551 0.363192
v 1.112190 2.165145 0.363192
vn 0.5556 0.8315 -0.0000
vn 0.7071 0.7071 -0.0000
vn -0.8315 -0.5556 -0.0000
vn -0.9239 -0.3827 -0.0000
vn 0.3827 0.9239 -0.0000
vn 0.1951 -0.9808 -0.0000
vn -0.0000 -1.0000 -0.0000
vn -0.7071 -0.7071 -0.0000
vn 0.1951 0.9808 -0.0000
vn 0.3827 -0.9239 -0.0000
vn -0.5556 -0.8315 -0.0000
vn -0.0000 1.0000 -0.0000
vn 0.5556 -0.8315 -0.0000
vn -0.3827 -0.9239 -0.0000
vn -0.1951 0.9808 -0.0000
vn 0.7071 -0.7071 -0.0000
vn -0.1951 -0.9808 -0.0000
vn -0.3827 0.9239 -0.0000
vn 0.8315 -0.5556 -0.0000
vn -0.5556 0.8315 -0.0000
vn 0.9239 -0.3827 -0.0000
vn -0.7071 0.7071 -0.0000
vn 0.9808 -0.1951 -0.0000
vn -0.8315 0.5556 -0.0000
vn 1.0000 -0.0000 -0.0000
vn -0.9239 0.3827 -0.0000
vn 0.9808 0.1951 -0.0000
vn -0.9808 0.1951 -0.0000
vn 0.9239 0.3827 -0.0000
vn -1.0000 -0.0000 -0.0000
vn 0.8315 0.5556 -0.0000
vn -0.9808 -0.1951 -0.0000
vn -0.0000 -0.0000 -1.0000
vn 0.0110 0.0206 -0.9997
vn 0.1767 0.2406 -0.9544
vn 0.1290 0.1754 -0.9760
vn -0.3058 -0.9521 -0.0000
vn -0.4809 -0.8768 -0.0000
vn -0.4856 -0.8742 -0.0000
vn 0.5379 0.8430 -0.0000
vn 0.6012 0.7991 -0.0000
vn 0.0980 0.9952 -0.0000
vn -0.4714 -0.8819 -0.0000
vn 0.0052 -0.0083 1.0000
vn 0.0038 -0.0105 0.9999
vn 0.0044 -0.0096 0.9999
vn 0.0055 -0.0078 1.0000
vn 0.0019 -0.0136 0.9999
vn 0.0030 -0.0119 0.9999
vn 0.0249 0.0458 -0.9986
vn 0.3512 0.4775 -0.8054
vn -0.0013 -0.0191 0.9998
vn 0.0009 -0.0153 0.9999
vn 0.0234 0.0437 -0.9988
vn 0.1760 0.2145 0.9607
vn 0.1666 0.2023 0.9651
vn 0.0305 0.0258 0.9992
vn 0.0276 0.0220 0.9994
vn 0.0190 0.0108 0.9998
vn 0.0174 0.0087 0.9998
vn 0.0146 0.0051 0.9999
vn 0.0135 0.0035 0.9999
vn 0.0122 0.0018 0.9999
vn 0.0112 0.0005 0.9999
vn 0.0106 -0.0004 0.9999
vn 0.0097 -0.0016 1.0000
vn 0.0094 -0.0021 1.0000
vn 0.0085 -0.0034 1.0000
vn 0.0083 -0.0036 1.0000
vn 0.0074 -0.0049 1.0000
vn -0.0020 -0.0202 0.9998
vn 0.0063 -0.0065 1.0000
vn 0.0065 -0.0063 1.0000
vn -0.3675 -0.6480 0.6671
vn -0.0000 -0.0000 1.0000
vt 0.000000 0.000000
s 1
usemtl Material.003
f 14/1/1 13/1/2 45/1/2 46/1/1
f 28/1/3 27/1/4 59/1/4 60/1/3
f 15/1/5 14/1/1 46/1/1 47/1/5
f 2/1/6 1/1/7 33/1/7 34/1/6
f 29/1/8 28/1/3 60/1/3 61/1/8
f 16/1/9 15/1/5 47/1/5 48/1/9
f 3/1/10 2/1/6 34/1/6 35/1/10
f 30/1/11 29/1/8 61/1/8 62/1/11
f 17/1/12 16/1/9 48/1/9 49/1/12
f 4/1/13 3/1/10 35/1/10 36/1/13
f 31/1/14 30/1/11 62/1/11 63/1/14
f 18/1/15 17/1/12 49/1/12 50/1/15
f 5/1/16 4/1/13 36/1/13 37/1/16
f 32/1/17 31/1/14 63/1/14 64/1/17
f 19/1/18 18/1/15 50/1/15 51/1/18
f 6/1/19 5/1/16 37/1/16 38/1/19
f 1/1/7 32/1/17 64/1/17 33/1/7
f 20/1/20 19/1/18 51/1/18 52/1/20
f 7/1/21 6/1/19 38/1/19 39/1/21
f 21/1/22 20/1/20 52/1/20 53/1/22
f 8/1/23 7/1/21 39/1/21 40/1/23
f 22/1/24 21/1/22 53/1/22 54/1/24
f 9/1/25 8/1/23 40/1/23 41/1/25
f 23/1/26 22/1/24 54/1/24 55/1/26
f 10/1/27 9/1/25 41/1/25 42/1/27
f 24/1/28 23/1/26 55/1/26 56/1/28
f 11/1/29 10/1/27 42/1/27 43/1/29
f 25/1/30 24/1/28 56/1/28 57/1/30
f 12/1/31 11/1/29 43/1/29 44/1/31
f 26/1/32 25/1/30 57/1/30 58/1/32
f 13/1/2 12/1/31 44/1/31 45/1/2
f 27/1/4 26/1/32 58/1/32 59/1/4
f 41/1/33 40/1/33 72/1/33 73/1/33
f 55/1/33 54/1/33 86/1/33 87/1/33
f 42/1/33 41/1/33 73/1/33 74/1/33
f 56/1/33 55/1/33 87/1/33 88/1/33
f 43/1/33 42/1/33 74/1/33 75/1/33
f 57/1/33 56/1/33 88/1/33 89/1/33
f 44/1/33 43/1/33 75/1/33 76/1/33
f 58/1/33 57/1/33 89/1/33 90/1/33
f 45/1/33 44/1/33 76/1/33 77/1/33
f 59/1/33 58/1/33 90/1/33 91/1/33
f 46/1/33 45/1/33 77/1/33 78/1/33
f 60/1/33 59/1/33 91/1/33 92/1/33
f 47/1/33 46/1/33 78/1/33 79/1/33
f 34/1/33 33/1/33 65/1/33 66/1/33
f 61/1/33 60/1/33 92/1/33 93/1/33
f 48/1/33 47/1/33 79/1/33 80/1/33
f 35/1/33 34/1/33 66/1/33 67/1/33
f 62/1/33 61/1/33 93/1/33 94/1/33
f 49/1/33 48/1/33 80/1/33 81/1/33
f 36/1/33 35/1/33 67/1/33 68/1/33
f 63/1/33 62/1/33 94/1/33 95/1/33
f 50/1/33 49/1/33 81/1/33 82/1/33
f 37/1/33 36/1/33 68/1/33 69/1/33
f 64/1/33 63/1/33 95/1/33 96/1/33
f 51/1/33 50/1/33 82/1/33 83/1/33
f 38/1/33 37/1/33 69/1/33 70/1/33
f 33/1/33 64/1/33 96/1/33 65/1/33
f 52/1/33 51/1/33 83/1/33 84/1/33
f 39/1/33 38/1/33 70/1/33 71/1/33
f 53/1/33 52/1/33 84/1/33 85/1/33
f 40/1/33 39/1/33 71/1/33 72/1/33
f 54/1/33 53/1/33 85/1/33 86/1/33
f 76/1/31 75/1/29 107/1/29 108/1/31
f 90/1/32 89/1/30 121/1/30 122/1/32
f 77/1/2 76/1/31 108/1/31 109/1/2
f 91/1/4 90/1/32 122/1/32 123/1/4
f 78/1/1 77/1/2 109/1/2 110/1/1
f 92/1/3 91/1/4 123/1/4 124/1/3
f 79/1/5 78/1/1 110/1/1 111/1/5
f 66/1/6 65/1/7 97/1/7 98/1/6
f 93/1/8 92/1/3 124/1/3 125/1/8
f 80/1/9 79/1/5 111/1/5 112/1/9
f 67/1/10 66/1/6 98/1/6 99/1/10
f 94/1/11 93/1/8 125/1/8 126/1/11
f 81/1/12 80/1/9 112/1/9 113/1/12
f 68/1/13 67/1/10 99/1/10 100/1/13
f 95/1/14 94/1/11 126/1/11 127/1/14
f 82/1/15 81/1/12 113/1/12 114/1/15
f 69/1/16 68/1/13 100/1/13 101/1/16
f 96/1/17 95/1/14 127/1/14 128/1/17
f 83/1/18 82/1/15 114/1/15 115/1/18
f 70/1/19 69/1/16 101/1/16 102/1/19
f 65/1/7 96/1/17 128/1/17 97/1/7
f 84/1/20 83/1/18 115/1/18 116/1/20
f 71/1/21 70/1/19 102/1/19 103/1/21
f 85/1/22 84/1/20 116/1/20 117/1/22
f 72/1/23 71/1/21 103/1/21 104/1/23
f 86/1/24 85/1/22 117/1/22 118/1/24
f 73/1/25 72/1/23 104/1/23 105/1/25
f 87/1/26 86/1/24 118/1/24 119/1/26
f 74/1/27 73/1/25 105/1/25 106/1/27
f 88/1/28 87/1/26 119/1/26 120/1/28
f 75/1/29 74/1/27 106/1/27 107/1/29
f 89/1/30 88/1/28 120/1/28 121/1/30
f 111/1/33 110/1/33 142/1/34 143/1/35
f 98/1/33 97/1/33 129/1/33 130/1/33
f 125/1/33 124/1/33 156/1/33 157/1/33
f 112/1/33 111/1/33 143/1/35 144/1/36
f 99/1/33 98/1/33 130/1/33 131/1/33
f 126/1/33 125/1/33 157/1/33 158/1/33
f 113/1/33 112/1/33 144/1/36 145/1/33
f 100/1/33 99/1/33 131/1/33 132/1/33
f 127/1/33 126/1/33 158/1/33 159/1/33
f 114/1/33 113/1/33 145/1/33 146/1/33
f 101/1/33 100/1/33 132/1/33 133/1/33
f 128/1/33 127/1/33 159/1/33 160/1/33
f 115/1/33 114/1/33 146/1/33 147/1/33
f 102/1/33 101/1/33 133/1/33 134/1/33
f 97/1/33 128/1/33 160/1/33 129/1/33
f 116/1/33 115/1/33 147/1/33 148/1/33
f 103/1/33 102/1/33 134/1/33 135/1/33
f 117/1/33 116/1/33 148/1/33 149/1/33
f 104/1/33 103/1/33 135/1/33 136/1/33
f 118/1/33 117/1/33 149/1/33 150/1/33
f 105/1/33 104/1/33 136/1/33 137/1/33
f 119/1/33 118/1/33 150/1/33 151/1/33
f 106/1/33 105/1/33 137/1/33 138/1/33
f 120/1/33 119/1/33 151/1/33 152/1/33
f 107/1/33 106/1/33 138/1/33 139/1/33
f 121/1/33 120/1/33 152/1/33 153/1/33
f 108/1/33 107/1/33 139/1/33 140/1/33
f 122/1/33 121/1/33 153/1/33 154/1/33
f 109/1/33 108/1/33 140/1/33 141/1/33
f 123/1/33 122/1/33 154/1/33 155/1/33
f 110/1/33 109/1/33 141/1/33 142/1/34
f 124/1/33 123/1/33 155/1/33 156/1/33
f 194/1/15 193/1/12 177/1/12 178/1/15
f 196/1/16 195/1/13 164/1/13 165/1/16
f 198/1/37 197/1/38 191/1/39 192/1/37
f 199/1/18 194/1/15 178/1/15 179/1/18
f 200/1/19 196/1/16 165/1/16 166/1/19
f 201/1/7 198/1/37 192/1/37 161/1/7
f 202/1/20 199/1/18 179/1/18 180/1/20
f 203/1/21 200/1/19 166/1/19 167/1/21
f 204/1/22 202/1/20 180/1/20 181/1/22
f 205/1/23 203/1/21 167/1/21 168/1/23
f 206/1/24 204/1/22 181/1/22 182/1/24
f 207/1/25 205/1/23 168/1/23 169/1/25
f 208/1/26 206/1/24 182/1/24 183/1/26
f 209/1/27 207/1/25 169/1/25 170/1/27
f 210/1/28 208/1/26 183/1/26 184/1/28
f 211/1/29 209/1/27 170/1/27 171/1/29
f 212/1/30 210/1/28 184/1/28 185/1/30
f 213/1/31 211/1/29 171/1/29 172/1/31
f 214/1/32 212/1/30 185/1/30 186/1/32
f 215/1/2 213/1/31 172/1/31 173/1/2
f 216/1/4 214/1/32 186/1/32 187/1/4
f 217/1/1 215/1/2 173/1/2 174/1/1
f 218/1/3 216/1/4 187/1/4 188/1/3
f 219/1/40 217/1/1 174/1/1 175/1/40
f 220/1/6 201/1/7 161/1/7 162/1/6
f 221/1/8 218/1/3 188/1/3 189/1/8
f 222/1/41 219/1/40 175/1/40 176/1/41
f 223/1/10 220/1/6 162/1/6 163/1/10
f 224/1/11 221/1/8 189/1/8 190/1/11
f 193/1/12 222/1/42 176/1/42 177/1/12
f 195/1/13 223/1/10 163/1/10 164/1/13
f 197/1/38 224/1/11 190/1/11 191/1/39
f 162/1/33 161/1/33 192/1/33 191/1/33 190/1/33 189/1/33 188/1/33 187/1/33 186/1/33 185/1/33 184/1/33 183/1/33 182/1/33 181/1/33 180/1/33 179/1/33 178/1/33 177/1/33 176/1/33 175/1/33 174/1/33 173/1/33 172/1/33 171/1/33 170/1/33 169/1/33 168/1/33 167/1/33 166/1/33 165/1/33 164/1/33 163/1/33
f 159/1/43 158/1/11 224/1/11 197/1/38
f 132/1/44 131/1/45 223/1/46 195/1/47
f 145/1/12 144/1/42 222/1/42 193/1/12
f 158/1/11 157/1/8 221/1/8 224/1/11
f 131/1/45 130/1/48 220/1/49 223/1/46
f 144/1/36 143/1/35 219/1/50 222/1/51
f 157/1/8 156/1/3 218/1/3 221/1/8
f 130/1/48 129/1/52 201/1/53 220/1/49
f 143/1/35 142/1/34 217/1/54 219/1/50
f 156/1/3 155/1/4 216/1/4 218/1/3
f 142/1/55 141/1/56 215/1/57 217/1/55
f 155/1/4 154/1/32 214/1/32 216/1/4
f 141/1/56 140/1/58 213/1/59 215/1/57
f 154/1/32 153/1/30 212/1/30 214/1/32
f 140/1/58 139/1/60 211/1/61 213/1/59
f 153/1/30 152/1/28 210/1/28 212/1/30
f 139/1/60 138/1/62 209/1/63 211/1/61
f 152/1/28 151/1/26 208/1/26 210/1/28
f 138/1/62 137/1/64 207/1/65 209/1/63
f 151/1/26 150/1/24 206/1/24 208/1/26
f 137/1/64 136/1/66 205/1/67 207/1/65
f 150/1/24 149/1/22 204/1/22 206/1/24
f 136/1/66 135/1/68 203/1/69 205/1/67
f 149/1/22 148/1/20 202/1/20 204/1/22
f 135/1/68 134/1/70 200/1/70 203/1/69
f 148/1/20 147/1/18 199/1/18 202/1/20
f 129/1/52 160/1/71 198/1/71 201/1/53
f 134/1/70 133/1/72 196/1/73 200/1/70
f 147/1/18 146/1/15 194/1/15 199/1/18
f 160/1/74 159/1/74 197/1/74 198/1/74
f 133/1/72 132/1/44 195/1/47 196/1/73
f 146/1/15 145/1/12 193/1/12 194/1/15
f 2/1/75 3/1/75 4/1/75 5/1/75 6/1/75 7/1/75 8/1/75 9/1/75 10/1/75 11/1/75 12/1/75 13/1/75 14/1/75 15/1/75 16/1/75 17/1/75 18/1/75 19/1/75 20/1/75 21/1/75 22/1/75 23/1/75 24/1/75 25/1/75 26/1/75 27/1/75 28/1/75 29/1/75 30/1/75 31/1/75 32/1/75 1/1/75
